<?xml version="1.0" encoding="UTF-8"?><svg id="Calque_2" xmlns="http://www.w3.org/2000/svg" viewBox="0 0 203.428 66.867"><defs><style>.cls-1{fill:#c40e50;}</style></defs><g id="Calque_1-2"><path class="cls-1" d="M96.93,24.794c-.248,0-.494-.049-.74-.061-.249-.011-.499.028-.744.004-.248-.024-.5-.023-.742-.061-.247-.039-.476-.159-.715-.213-.244-.055-.501-.056-.735-.128-.239-.074-.477-.155-.703-.248-.231-.095-.448-.222-.663-.339-.219-.118-.448-.225-.649-.367-.202-.143-.354-.351-.535-.519s-.348-.345-.505-.538c-.152-.183-.331-.342-.473-.529-.144-.189-.28-.384-.413-.576-.136-.195-.267-.393-.392-.591-.127-.201-.208-.428-.324-.632-.118-.206-.214-.421-.322-.63-.109-.212-.267-.397-.365-.611-.099-.216-.214-.425-.302-.643-.089-.22-.147-.452-.225-.673-.079-.224-.168-.444-.236-.669-.068-.227-.142-.454-.199-.682-.058-.231-.109-.463-.155-.693-.046-.233-.036-.474-.071-.706-.035-.235-.108-.464-.131-.697-.024-.236.002-.475-.01-.709-.012-.237-.041-.472-.041-.706,0-.24-.032-.482-.02-.72.012-.24.072-.477.095-.714.024-.239.023-.481.059-.717.036-.238.117-.467.164-.701.048-.236.08-.474.14-.705.06-.233.17-.45.241-.678.072-.229.125-.463.209-.687.085-.225.151-.457.247-.675.097-.22.245-.414.354-.626.11-.213.217-.426.339-.631.123-.206.216-.431.35-.628.135-.198.303-.373.45-.561s.28-.391.439-.569.315-.364.487-.53.391-.281.574-.435.368-.303.562-.443.357-.326.561-.453c.202-.126.424-.224.637-.336.211-.11.444-.176.665-.271.218-.094.422-.229.65-.308.224-.078.473-.081.706-.143.229-.062.454-.139.691-.186.232-.045.469-.061.709-.092.235-.03.47-.064.712-.079.236-.014.474-.099.717-.099.052,0,.053.018.105.019.219.004.461.065.725.09.229.022.467.074.719.111.233.034.476.053.722.101.235.045.475.089.715.146.236.056.467.137.701.205.236.069.464.155.691.235.235.083.481.121.7.216.231.101.441.23.645.344.224.125.462.213.643.355.205.16.386.341.52.522.126.176.166.402.263.589.099.192.189.38.257.58.069.203.106.408.141.616.036.211.105.416.105.628,0,.236-.053.47-.083.709-.03.236-.069.469-.126.701-.057.233-.132.458-.213.68-.084.229-.132.469-.239.677-.112.219-.264.409-.397.597-.144.204-.282.401-.447.557-.183.174-.398.275-.6.375-.221.109-.434.162-.67.162-.203,0-.413.061-.591.003-.186-.06-.311-.232-.452-.373-.181-.172-.41-.252-.575-.378-.203-.155-.342-.352-.514-.459-.224-.138-.446-.2-.605-.301-.174-.069-.302-.154-.441-.223-.014-.009.023.048.009.039-.192-.103-.36-.181-.516-.244-.211-.084-.376-.141-.535-.141-.244,0-.464.058-.682.168-.204.103-.402.23-.581.412-.159.163-.32.344-.456.559-.123.194-.23.411-.334.639-.097.212-.189.436-.267.672-.075.224-.116.464-.173.703-.055.232-.09.47-.128.711-.037.238-.08.475-.099.716s-.072.482-.072.723c0,.22.062.45.084.689.021.225.006.462.047.692.041.227.091.456.153.678.063.226.168.437.253.648.09.221.221.41.336.601.124.206.222.418.377.575.167.17.373.265.578.36s.409.15.652.15c.188,0,.408.005.632-.085.184-.074.388-.162.586-.276.181-.104.339-.267.523-.389.18-.119.385-.206.562-.329.229-.164.447-.333.673-.475.241-.152.475-.292.724-.387.259-.099.521-.121.799-.121.231,0,.453-.033.641.037.207.077.345.24.472.421.155.213.356.391.482.612.13.228.193.486.293.72.103.242.197.48.267.724.072.253.179.496.216.746.038.26.02.524.02.776,0,.248.006.486-.016.712-.024.246-.115.47-.164.691-.053.241-.055.486-.135.699-.086.23-.247.415-.361.614-.12.21-.243.407-.391.586-.152.184-.276.395-.453.548-.178.155-.408.243-.607.369s-.389.267-.604.367c-.212.099-.437.174-.661.251-.222.076-.446.155-.675.212s-.461.107-.693.147-.472.036-.705.063c-.237.027-.468.105-.701.12-.24.016-.478,0-.708.007-.243.007-.479.013-.706.013Z"/><path class="cls-1" d="M111.6,25.59c-.254,0-.49-.049-.714-.061-.258-.013-.5.022-.721-.009-.256-.036-.5-.055-.71-.119-.245-.075-.431-.241-.621-.362-.203-.13-.421-.242-.567-.434-.136-.178-.257-.391-.35-.629-.08-.204-.125-.442-.178-.695-.045-.215-.111-.447-.14-.701-.025-.22.022-.462.008-.714-.013-.226-.022-.464-.028-.716-.005-.228-.049-.467-.049-.718,0-.276.007-.553.012-.822.005-.284.011-.559.016-.819.006-.297.058-.57.058-.813.035-.208.053-.382.053-.555.006-.239-.049-.479-.042-.718s-.01-.478-.002-.716.042-.476.049-.714-.002-.476.006-.714.005-.476.012-.713.016-.475.024-.712.067-.473.075-.711-.028-.477-.021-.715.058-.474.065-.713-.009-.477-.002-.716-.024-.479-.018-.718c.012-.235.067-.469.078-.704s-.008-.472.003-.706.061-.469.07-.704-.003-.471.006-.706.063-.468.071-.703-.01-.47-.003-.704-.012-.47-.005-.704.063-.468.07-.702.004-.47.011-.705-.029-.471-.023-.707.045-.47.051-.706c0-.276.098-.51.287-.681.173-.156.406-.294.66-.383.234-.083.504-.081.748-.123.241-.029.484-.057.734-.081.243-.022.485-.104.735-.121.242-.016.49-.005.739-.016.245-.01.495.023.746.018.246-.005.494-.059.744-.059.243,0,.484.074.727.081s.486-.008.728.007.483.055.724.077c.243.023.484.038.724.07.242.032.495-.007.733.035.241.043.477.11.713.164.239.055.463.16.695.227.235.068.458.163.685.244.23.082.463.151.684.247.224.098.445.196.658.31.215.115.413.254.615.387.203.133.39.284.579.436s.405.271.579.442c.172.169.318.364.473.553.152.186.342.349.477.555.131.199.253.414.366.633.109.212.133.468.225.698.088.221.174.445.245.684.076.254.131.505.193.75.065.256.173.495.223.743.052.259.059.519.094.769.037.26.069.513.088.766.019.261.023.516.023.769,0,.232.043.464.028.692-.016.231-.073.457-.104.684-.032.229-.05.46-.098.684-.048.226-.147.438-.211.658-.064.222-.137.438-.217.653-.08.217-.087.463-.182.672s-.278.376-.388.578-.155.444-.279.637-.329.332-.468.515-.24.393-.392.566c-.015.031.031-.024.054.002.083.165.231.366.355.63.094.199.2.421.308.661.095.211.181.441.281.673.094.218.191.443.285.671.093.225.166.461.254.687.09.231.161.467.241.692.085.238.171.467.24.688.078.251.14.49.189.706.063.278.125.521.125.713,0,.236-.032.46-.105.651-.079.205-.213.388-.357.552-.139.16-.332.271-.513.402-.172.125-.329.281-.521.39-.014.01.021-.048.007-.038-.214.134-.44.237-.682.321-.236.082-.474.174-.728.218-.247.043-.5.106-.755.123-.253.017-.511-.025-.765-.025-.208,0-.208.046-.415.046-.255,0-.522-.017-.776-.046-.265-.03-.508-.14-.738-.229-.193-.089-.357-.212-.506-.333-.198-.161-.376-.297-.416-.436-.141-.297-.196-.573-.271-.815-.091-.294-.158-.555-.215-.821-.046-.239-.104-.475-.15-.711-.047-.239-.057-.483-.102-.719-.046-.242-.156-.468-.2-.705-.044-.24-.033-.487-.074-.72-.042-.242-.134-.441-.17-.674-.358.022-.594.027-.758.132-.211.135-.293.369-.325.705-.02.213.032.475.032.793-.005.261-.048.51-.056.747-.008.265-.002.516-.016.752-.016.268-.092.511-.118.743-.031.268-.002.524-.051.747-.058.267-.195.482-.287.69-.108.244-.227.446-.392.617-.167.172-.337.359-.577.466-.206.092-.462.1-.732.151-.222.042-.462.104-.732.122-.23.015-.479.019-.748.019ZM115.857,12.16c.252-.018.501-.057.702-.18s.342-.334.491-.533c.139-.186.222-.408.315-.639.087-.218.226-.429.271-.669.044-.235.003-.483.006-.723.003-.244-.019-.479-.06-.71-.043-.246-.088-.479-.182-.69-.103-.23-.253-.407-.417-.569-.171-.168-.338-.345-.578-.409-.211-.056-.468-.062-.733-.014,0,.182.028.452.019.75-.007.224-.019.473-.027.735-.007.238-.014.487-.02.739-.006.249-.057.499-.058.745-.001.256-.017.507-.011.741.007.273.081.521.102.734.037.37.084.628.182.693Z"/><path class="cls-1" d="M137.448,25.209c-.238,0-.47-.055-.704-.076-.236-.021-.477.003-.708-.039s-.473-.064-.7-.126-.43-.207-.652-.288-.464-.111-.68-.211c-.213-.099-.428-.204-.635-.32-.205-.115-.396-.258-.595-.389-.196-.129-.407-.244-.595-.388-.186-.143-.327-.345-.506-.502-.176-.155-.348-.315-.517-.483-.166-.165-.359-.308-.518-.485-.156-.175-.306-.359-.454-.545-.146-.184-.289-.373-.426-.567-.136-.191-.228-.413-.355-.614-.125-.198-.231-.407-.348-.614-.116-.204-.28-.383-.387-.595-.105-.21-.228-.414-.325-.631-.095-.215-.162-.444-.248-.666-.085-.219-.183-.436-.259-.661-.075-.223-.157-.447-.222-.675-.065-.226-.125-.456-.181-.687-.055-.229-.055-.471-.1-.704-.045-.231-.128-.457-.162-.692-.034-.233-.021-.473-.045-.709-.024-.234-.066-.468-.08-.705-.014-.235-.06-.472-.064-.709,0-.248.049-.493.061-.736.012-.247.001-.495.026-.736.025-.246.097-.485.134-.725.038-.244.061-.49.112-.727.051-.242.153-.469.217-.704.065-.238.11-.48.187-.71.078-.235.137-.475.227-.701.091-.229.234-.435.337-.655.105-.223.206-.445.322-.659.118-.217.205-.45.333-.656.131-.209.294-.395.435-.593.143-.201.27-.413.423-.602.155-.191.305-.388.471-.567.167-.181.385-.311.562-.478.179-.169.359-.332.547-.488.189-.157.345-.357.543-.499.199-.144.418-.261.625-.389.209-.129.442-.215.658-.328.217-.114.416-.266.64-.363.225-.098.478-.121.709-.201s.456-.175.692-.238.478-.094.719-.138.478-.089.722-.114.484-.117.729-.121c.247,0,.492.03.73.052.245.022.479.102.714.146.241.045.469.123.699.19.234.068.468.126.691.215.226.09.448.183.663.293s.415.247.619.377.392.278.585.425c.192.146.412.259.592.421.179.161.336.347.505.522.167.174.371.318.527.505.154.185.303.379.447.575.143.194.211.441.343.645.131.202.264.403.385.613.12.209.222.427.332.643.11.215.261.41.361.631s.16.457.249.682.179.449.259.677.15.46.22.691.186.451.247.685c.061.235.086.479.137.715.052.238.121.472.163.709.043.24.036.486.068.724.033.242.058.482.08.721.023.244.127.479.139.718.012.245-.071.489-.071.727,0,.24.081.48.071.715-.01.24-.113.471-.134.706-.021.239.006.481-.025.714-.032.238-.086.47-.128.702-.043.236-.046.479-.099.709-.055.234-.112.468-.177.695-.066.231-.153.455-.23.678-.078.227-.161.451-.25.669-.091.222-.206.432-.307.645-.103.216-.226.42-.34.626-.116.21-.229.418-.356.617-.129.202-.266.396-.405.586-.141.193-.268.396-.42.577-.154.183-.306.369-.47.538-.166.172-.349.327-.525.484-.178.159-.388.277-.576.421-.189.145-.354.323-.552.452-.2.129-.428.211-.636.323s-.421.215-.638.31-.426.211-.651.288-.444.178-.675.236c-.229.058-.473.059-.708.097-.233.038-.464.113-.703.133-.235.019-.475-.014-.715-.014ZM135.753,16.417c.114.227.206.449.341.61.164.196.381.305.563.408.216.123.433.148.651.148.267,0,.518.019.733-.08.223-.102.381-.304.552-.491.16-.174.289-.374.407-.603.11-.212.221-.43.298-.673.073-.231.103-.477.149-.723.046-.243.145-.48.167-.725.022-.251.033-.502.033-.743,0-.245-.05-.489-.067-.733-.017-.246-.037-.489-.069-.731-.033-.245-.073-.486-.12-.724-.048-.245-.058-.495-.12-.728-.065-.242-.12-.484-.198-.709-.082-.239-.229-.446-.324-.661-.101-.232-.253-.461-.403-.69-.154-.235-.302-.468-.475-.643-.237-.24-.465-.376-.664-.376-.15.017-.08.035-.218.173-.153.148-.292.328-.428.55-.115.188-.268.374-.369.605-.09.206-.134.443-.212.676-.073.217-.181.432-.243.668-.059.224-.09.461-.138.697-.047.23-.051.47-.087.708-.035.234-.107.464-.132.701s-.013.476-.025.712c-.013.24-.06.476-.06.711s.026.463.036.682c.011.239-.018.47.007.683.028.243.092.466.141.668.06.246.159.443.256.616.013.017.007,0,.017.015Z"/><path class="cls-1" d="M168.486,23.962c0,.272-.134.439-.319.586-.162.128-.354.262-.618.32-.21.047-.448.108-.703.124-.225.014-.467-.056-.714-.056-.328,0-.328.066-.656.066s-.329.004-.658.004-.329-.023-.658-.023c-.211,0-.435.028-.657.024s-.443-.079-.655-.09c-.236-.013-.458-.03-.653-.055-.285-.036-.524-.048-.642-.12-.184-.117-.373-.301-.56-.524-.15-.179-.301-.389-.45-.62-.131-.202-.22-.446-.349-.678-.12-.216-.222-.449-.34-.683-.113-.224-.279-.428-.388-.663-.108-.23-.235-.455-.339-.688s-.182-.481-.282-.713c-.103-.239-.219-.469-.316-.698-.096-.24-.186-.437-.255-.61-.1-.251-.176-.441-.249-.606-.095-.214-.149-.412-.269-.607-.112.224-.168.483-.236.732-.064.237-.152.476-.185.734-.031.244-.027.499-.038.761-.011.247.024.501.024.762,0,.212-.042.424-.038.64.004.208.043.419.06.639,0,.229-.031.46-.023.694.008.225.038.454.038.692,0,.208-.145.384-.334.566-.143.137-.314.284-.539.4-.186.096-.387.21-.614.289-.205.071-.437.087-.666.142-.215.052-.435.105-.663.14-.222.035-.444.104-.672.122s-.457-.004-.682-.004c-.228,0-.456.019-.676,0-.231-.02-.461-.035-.675-.077-.23-.045-.433-.164-.635-.236-.224-.08-.424-.172-.601-.286-.199-.129-.409-.238-.532-.413-.127-.181-.192-.408-.219-.641-.023-.199-.002-.46-.017-.767-.012-.23-.072-.487-.079-.769-.006-.24.06-.5.057-.772-.003-.246-.029-.504-.029-.773,0-.229.023-.465.024-.71.001-.231-.009-.468-.006-.71.002-.232-.073-.47-.069-.712.003-.232.026-.467.029-.706.004-.233.054-.469.059-.708.004-.235.032-.472.037-.71.005-.235-.012-.472-.007-.71s.002-.475.008-.713.03-.476.036-.714.025-.477.031-.715c.006-.24-.042-.48-.035-.717.007-.24.037-.478.044-.714.007-.24-.043-.479-.036-.714.007-.243.017-.483.024-.718.007-.241.098-.475.105-.706.007-.242.006-.479.013-.709,0-.252.016-.495.019-.73.003-.254-.045-.499-.04-.73.005-.257.049-.499.056-.725.007-.267.01-.512.016-.729.008-.289.019-.531.019-.719,0-.415-.039-.415-.051-.83-.035-.312-.002-.624-.002-.935,0-.224-.017-.446-.004-.663.014-.228.08-.443.115-.653.038-.228.09-.436.161-.632.079-.219.108-.458.24-.62.139-.169.363-.234.574-.322.183-.076.381-.2.629-.2.086,0,.086.088.173.088.242,0,.553-.053.865-.088.212,0,.442.009.676,0,.225-.008.454-.063.674-.063.243,0,.475-.002.693.004.245.007.475.035.688.057.247.026.477.065.682.124.234.067.437.18.618.308s.323.301.452.508c.109.175.207.378.279.622.059.198.102.422.137.673.029.208.076.434.09.683.012.214.029.445.029.692,0,.219-.019.443-.025.669-.006.22-.059.441-.07.665-.012.222.025.449.01.672s-.08.443-.1.665c-.02.227-.042.452-.065.673-.023.226-.015.451-.039.667-.026.228-.039.409-.066.622.107-.161.183-.301.281-.49.092-.176.143-.381.243-.565.11-.196.23-.394.345-.599.11-.197.275-.368.388-.57.111-.199.237-.392.35-.593s.182-.428.296-.63.27-.381.385-.58c.117-.202.223-.408.339-.606.119-.203.228-.407.345-.602.122-.204.275-.382.394-.574.127-.204.196-.435.317-.621.133-.204.307-.366.432-.543.145-.207.225-.438.355-.601.168-.212.366-.345.503-.468.148-.13.325-.224.543-.28.188-.048.395-.122.619-.122.23,0,.446.061.649.097.223.039.438.077.638.131.239.085.466.199.705.242.245.044.5.003.746.021.254.033.499.131.742.167.262.039.513.07.742.12.279.061.546.079.74.171.282.134.409.341.409.579,0,.104-.071.314-.349.695-.143.203-.297.408-.44.629-.136.21-.261.434-.397.658-.131.214-.26.435-.391.66-.128.219-.289.423-.417.649-.125.22-.2.471-.326.697-.123.222-.27.434-.395.659s-.268.442-.394.67c-.121.215-.213.447-.335.664-.12.215-.248.427-.372.644-.122.214-.219.444-.346.661-.124.212-.273.413-.403.629-.126.208-.235.432-.369.644-.131.208-.303.394-.444.606-.136.205-.22.428-.365.637-.01.051.039-.059.071-.018.07.229.165.452.239.675.075.227.165.445.243.666.079.225.111.464.193.683.084.222.208.427.294.644.088.222.093.475.183.692.091.22.229.418.322.633.094.219.234.416.329.631s.118.465.215.678c.098.215.231.413.33.627s.228.411.326.624.165.439.263.651c.099.214.229.414.33.629s.132.462.233.678.263.403.362.62.142.459.24.677.185.44.281.659.259.409.351.63.139.46.228.682c.138.381.218.619.218.723Z"/><path class="cls-1" d="M101.012,63.617c-.212,0-.462-.049-.742-.063-.229-.011-.481.029-.743.005-.237-.022-.49-.017-.744-.053-.24-.033-.475-.147-.724-.194-.242-.046-.5-.035-.743-.096-.241-.06-.485-.126-.721-.203-.238-.078-.467-.187-.694-.285-.232-.1-.473-.185-.687-.307-.22-.126-.392-.321-.585-.472-.198-.157-.376-.325-.536-.511-.162-.189-.337-.371-.45-.594-.11-.216-.194-.455-.251-.705-.053-.231-.081-.482-.081-.745,0-.24.067-.477.105-.717s.108-.467.177-.698c.07-.235.097-.483.193-.701.1-.228.194-.458.316-.659.132-.217.298-.403.446-.577.171-.201.342-.384.52-.509.227-.158.47-.262.682-.262.242,0,.442.046.546.115.012.012-.084.026-.071.037.163.107.398.207.642.362.19.12.377.287.602.423.202.122.427.228.648.353.211.12.445.205.665.321s.423.265.644.369c.23.108.468.18.69.267.243.095.465.214.687.274.263.071.509.092.726.097.035,0,.034.046.069.046.249,0,.49-.219.653-.501.132-.227.187-.515.187-.808,0-.251.007-.497-.082-.7-.095-.216-.259-.4-.473-.525-.201-.118-.43-.199-.644-.316-.208-.113-.405-.253-.62-.363-.213-.108-.441-.189-.657-.291-.223-.11-.455-.206-.679-.318s-.418-.281-.64-.397c-.222-.116-.443-.232-.66-.354-.219-.124-.467-.197-.677-.329-.214-.134-.41-.294-.611-.439-.205-.148-.376-.334-.564-.495-.191-.164-.408-.298-.578-.479-.172-.182-.277-.418-.423-.62s-.297-.395-.415-.618c-.114-.217-.193-.451-.276-.692-.092-.254-.183-.496-.252-.737-.075-.261-.212-.496-.261-.742-.053-.264-.074-.526-.1-.775-.028-.267.005-.528.005-.778,0-.248.035-.489.058-.729.024-.246.038-.489.085-.725.048-.242.1-.48.171-.712.072-.236.173-.457.267-.681.096-.227.213-.438.329-.651.118-.215.199-.451.337-.652.139-.202.306-.382.463-.569s.284-.406.459-.576.363-.334.553-.487.438-.229.642-.364.407-.265.623-.379.44-.204.666-.298.436-.224.67-.296.478-.095.718-.143.477-.089.721-.114c.242-.024.484-.031.729-.031.236,0,.474-.041.709-.019s.464.088.696.132.465.078.692.145c.225.067.431.186.651.277.216.089.425.19.635.303.206.11.453.158.651.291.192.13.328.343.512.496.179.149.411.245.581.416.163.165.258.399.412.585.217.248.414.464.518.706.129.298.164.59.164.858,0,.221.023.452-.018.676-.04.219-.097.444-.17.657s-.176.421-.275.621c-.102.206-.217.406-.339.587-.131.195-.289.363-.435.518-.166.178-.349.314-.521.423-.214.137-.423.221-.622.221-.312,0-.517-.072-.655-.176-.012-.012.025.03.014.016-.173-.173-.369-.33-.577-.491-.199-.154-.399-.312-.619-.446s-.428-.293-.657-.396c-.24-.108-.499-.148-.737-.21-.259-.068-.507-.152-.748-.152s-.49.05-.725.16c-.205.095-.389.263-.582.456-.034.035.004.165.004.372,0,.212.036.405.166.576.123.161.313.265.486.387.182.128.364.238.528.32.258.12.482.287.731.394.253.109.501.228.762.332.247.086.506.123.738.21.246.092.465.228.689.324.245.105.477.201.689.313.216.113.428.227.628.361.202.135.372.307.558.461.187.154.409.268.579.439s.291.388.445.574.355.338.491.538.213.437.33.649.233.422.332.643.237.427.317.655.114.473.175.706.129.468.17.706.017.485.038.725.099.48.099.721c0,.239-.078.475-.1.715-.022.238-.043.474-.086.711-.043.235-.039.482-.103.714-.064.23-.201.438-.285.663-.084.223-.148.456-.252.672-.104.215-.23.419-.354.626-.123.204-.245.411-.387.605-.141.192-.291.38-.451.561-.158.178-.351.323-.528.488-.167.156-.317.344-.519.474-.191.123-.411.213-.629.314-.207.096-.432.161-.659.238-.217.073-.434.169-.666.225-.224.054-.456.094-.692.133-.228.038-.458.099-.695.124-.232.024-.469.016-.706.028-.233.012-.469.013-.706.013Z"/><path class="cls-1" d="M119.005,64.205c-.248,0-.488-.047-.721-.055-.25-.009-.493.032-.722.005-.25-.029-.498-.04-.718-.101-.242-.066-.438-.225-.638-.342-.207-.121-.431-.226-.585-.417-.14-.175-.265-.391-.354-.636-.074-.205-.11-.447-.145-.709-.03-.219-.074-.461-.074-.723,0-.231.069-.461.072-.692s.009-.461.015-.692-.028-.463-.019-.694.022-.461.033-.692.021-.461.032-.692.07-.46.082-.69c0-.242.053-.519.053-.761.009-.229-.044-.458-.036-.684.008-.228-.007-.456.001-.682.008-.228.043-.455.051-.681s-.003-.454.004-.68.002-.452.007-.678.01-.451.014-.676.058-.45.06-.675-.041-.451-.041-.678c0-.088.041-.373.037-.76-.002-.225-.029-.483-.033-.759-.004-.247-.046-.505-.051-.765s.032-.52.025-.767c-.007-.279-.046-.539-.055-.764-.018-.423-.001-.722-.028-.758-.104-.104-.026-.097-.112-.119-.138,0-.312-.011-.449-.011-.054.008-.048.046-.101.061-.276.069-.622.096-.968.096-.312,0-.312-.049-.623-.049-.242,0-.487.009-.729.044-.173.035-.412.111-.655.111-.212,0-.523-.068-.81-.169-.274-.096-.546-.235-.664-.471-.068-.164-.138-.386-.176-.636-.03-.2.011-.427-.003-.658-.013-.213-.021-.432-.021-.653,0-.24-.057-.49-.048-.732.01-.256.047-.505.061-.73.019-.298.08-.549.094-.717.013-.241-.016-.467.017-.667.04-.243.161-.437.232-.624.086-.229.168-.421.301-.577.146-.17.324-.274.531-.368.186-.085.385-.151.623-.186.202-.03.419-.12.66-.12.214,0,.425.021.632.025.212.004.421.056.631.062s.418.037.63.046c.208.008.418-.005.632.003.173,0,.311.026.484.026.277.013.276.036.552.053.221.014.442.039.664.05s.445-.033.667-.025.442.039.664.045.444-.047.666-.044.443.007.664.007c.228,0,.457.084.684.082.228-.002.457-.016.681-.026.229-.01.457-.012.679-.035.121-.006.119-.042.239-.052.258-.043.521-.047.779-.084s.517-.075.776-.104.519-.046.779-.061.52-.076.781-.076c.277,0,.55.033.758.102.212.045.403.083.559.155.201.093.32.236.418.373.144.178.255.362.35.559.097.202.253.382.309.598.056.214.007.451.033.674.026.22.126.437.134.66s-.079.449-.079.67c0,.261.044.535.021.808-.022.271-.075.539-.126.799-.054.276-.081.556-.174.794-.105.27-.243.522-.409.707-.132.132-.348.23-.575.312-.189.068-.406.125-.626.172-.277.035-.593.05-.939.05-.208,0-.433-.025-.658-.038s-.45-.022-.658-.039c-.173-.016-.207-.14-.347-.038-.035.312-.011.66-.011,1.04.004.25.019.499.024.75s-.005.5.001.751-.031.501-.024.752.066.499.073.75-.031.503-.022.754.016.502.026.753.051.5.061.751.055.5.065.75-.028.502-.018.752.067.496.077.745c.035.312.027.658.061.97.014.256-.032.515-.019.769s.011.508.023.762.075.504.084.758-.029.506-.024.759.019.507.019.763c0,.224.007.455,0,.691-.006.228-.052.459-.062.691s.044.468.032.696c-.019.212-.092.426-.147.677-.044.2-.042.44-.15.685-.075.191-.282.317-.499.448-.174.105-.377.2-.606.274-.207.066-.417.172-.643.217-.223.044-.457.042-.676.068-.24.03-.47.068-.676.081-.281.019-.518.006-.67.006Z"/><path class="cls-1" d="M139.004,64.343c-.234,0-.466-.052-.7-.067s-.472.018-.704-.013-.471-.038-.701-.083-.442-.173-.668-.233-.47-.066-.692-.141-.446-.155-.662-.245-.423-.209-.632-.313-.432-.192-.634-.311-.365-.303-.557-.436-.379-.273-.561-.421-.386-.272-.555-.433-.33-.335-.486-.51-.304-.358-.444-.547c-.139-.188-.231-.408-.354-.608-.122-.199-.218-.41-.323-.621-.103-.209-.253-.397-.338-.618-.078-.199-.171-.434-.233-.704-.051-.222-.07-.472-.112-.734-.036-.231-.086-.475-.116-.733-.027-.235-.062-.481-.084-.736-.02-.239-.038-.486-.055-.739-.016-.241.022-.491.01-.743-.012-.243-.065-.488-.074-.739-.008-.245.028-.494.022-.745-.006-.245-.034-.492-.037-.741-.004-.246-.044-.494-.046-.743s.04-.498.04-.747c0-.247-.029-.494-.028-.741s.043-.493.045-.738c.002-.247-.017-.494-.014-.738.003-.248.052-.493.056-.736.004-.249-.018-.496-.014-.738.005-.252-.017-.5-.012-.743.006-.251.061-.496.067-.736.007-.253.004-.5.011-.737.007-.255-.027-.501-.019-.735.009-.259.05-.502.058-.73,0-.206-.021-.406-.013-.591.009-.219.004-.418.004-.587.011-.267.136-.501.243-.724.108-.226.254-.424.443-.607.175-.17.346-.372.575-.503.213-.122.46-.209.707-.299.233-.085.49-.115.743-.171.246-.054.491-.145.747-.172.253-.027.512.03.766.03.258,0,.496-.015.72.007.26.025.489.085.707.139.251.062.471.131.671.234.222.115.461.195.627.362s.296.38.413.6c.105.199.151.439.223.683.064.216.093.451.135.704.037.223.088.456.112.708.021.226.045.463.057.714.011.23,0,.471.004.722.004.232-.007.473-.007.724,0,.258.053.521.05.787-.003.26-.031.523-.037.789-.006.26.044.525.035.789-.008.261-.02.525-.031.789s-.107.524-.121.789c-.013.248-.016.499-.024.748-.009.252-.03.504-.035.753-.005.253.044.504.041.752-.002.252-.041.5-.042.743,0,.254.004.502.004.743,0,.236-.004.467-.002.691.003.239.058.47.065.692.007.242-.016.475-.003.694.015.245.055.474.079.686.029.253.021.491.065.689.061.271.142.501.24.653.139.223.344.338.481.465.204.188.37.351.557.351.211,0,.419-.169.648-.336.179-.131.416-.245.575-.46.138-.186.22-.43.324-.668.077-.184.159-.394.213-.637.046-.204.038-.434.07-.673.028-.212.048-.435.067-.67.017-.216.046-.439.056-.672.01-.22.015-.446.019-.678.004-.222.026-.449.026-.68,0-.224.015-.452.011-.683-.003-.226-.016-.454-.022-.686-.006-.226-.009-.454-.017-.683-.008-.227-.043-.454-.054-.683s-.035-.459-.048-.689c-.007-.23.001-.461-.005-.69-.007-.231.03-.462.024-.69-.006-.231-.062-.458-.067-.685-.005-.23.039-.458.036-.682-.003-.231-.003-.458-.003-.68,0-.251-.029-.491-.023-.72.006-.251-.018-.493-.004-.72.016-.253.085-.488.111-.713.029-.256.02-.502.064-.723.05-.253.119-.488.189-.699.081-.245.232-.44.343-.633.125-.218.276-.389.442-.548.171-.164.332-.339.55-.45.201-.102.438-.14.682-.203.215-.056.442-.108.693-.14.224-.028.46-.057.714-.069.227-.01.467.022.72.022.244,0,.485-.056.716-.033.245.024.471.116.695.17.239.059.489.069.694.17.218.107.384.288.552.45.167.161.31.34.416.563.095.199.215.414.254.669.027.234.015.485.038.743.022.238.06.485.078.741.017.241-.022.493-.008.747.013.242.092.488.101.741.009.245-.051.496-.047.749.004.246.018.495.018.747,0,.235.058.473.054.714-.003.236-.074.473-.081.714-.007.236.018.476.008.717-.01.237-.035.475-.049.715-.013.238-.015.477-.032.717-.016.237-.033.476-.053.714s-.079.473-.102.712.009.483-.018.721-.081.475-.111.712c-.03.239-.084.474-.118.711-.034.239-.038.482-.076.718-.039.239-.086.475-.129.71-.043.238-.059.48-.106.714-.048.238-.123.467-.176.699-.054.237-.085.476-.144.705-.06.235-.164.455-.229.681-.067.234-.08.481-.153.705-.076.233-.184.45-.266.669-.085.23-.155.461-.247.674-.098.227-.188.452-.294.658-.113.22-.276.404-.398.598-.132.21-.235.432-.378.609-.152.187-.379.302-.547.469-.171.169-.314.363-.499.511-.187.149-.354.329-.555.457s-.449.177-.661.285c-.212.108-.412.241-.634.329-.22.088-.436.199-.666.268-.227.068-.469.094-.703.144-.232.05-.463.123-.7.155-.235.032-.48-.019-.72-.003-.237.016-.473.059-.713.059Z"/><path class="cls-1" d="M157.757,64.066c-.237,0-.475-.048-.716-.056-.239-.009-.481.035-.72.016-.24-.019-.484-.011-.72-.042-.241-.032-.467-.145-.699-.191-.24-.048-.49-.04-.716-.106-.237-.069-.469-.146-.683-.236-.228-.096-.435-.228-.63-.352-.208-.132-.42-.263-.582-.43-.168-.173-.256-.404-.365-.618-.006-.017.041.017.035,0-.095-.177-.215-.395-.281-.665-.052-.213-.092-.452-.128-.707-.032-.226-.059-.467-.082-.716-.021-.234.01-.478-.004-.724-.013-.238-.005-.48-.012-.721s-.073-.483-.076-.721c-.003-.246-.028-.489-.028-.723,0-.232.027-.464.027-.695s-.018-.462-.018-.693-.012-.461-.013-.692-.002-.459-.003-.689.048-.46.045-.69-.049-.46-.053-.691.035-.463.03-.695c0-.257-.025-.515-.028-.771s-.045-.514-.049-.77c-.004-.259.034-.518.031-.774s-.035-.511-.035-.764c0-.24.042-.479.045-.716.003-.24-.014-.48-.007-.717.007-.241.061-.477.073-.714.012-.241,0-.48.016-.716.017-.241.011-.481.035-.715.025-.241.102-.472.135-.705.034-.241.063-.477.105-.708.045-.24.053-.483.109-.71.058-.237.155-.459.226-.681.076-.233.133-.467.225-.68.097-.225.191-.448.307-.649.123-.211.309-.373.456-.555.151-.188.311-.358.49-.512s.34-.343.55-.46c.202-.113.433-.187.666-.262.218-.07.458-.083.705-.118.226-.032.46-.099.711-.099.052,0,.051.07.103.071.197.004.434-.015.701-.007.215.006.45.036.699.046.223.009.459.007.702.019.228.011.467-.053.706-.039.23.014.464.049.699.067s.468.084.702.106c.237.022.469.069.699.096.239.028.476.037.701.07.242.036.476.067.695.11.248.048.473.119.681.177.257.072.467.161.644.249.22.112.46.186.668.316s.398.29.595.439.423.262.607.426c.183.163.361.339.532.517.17.177.27.417.428.607.156.189.312.376.456.577.143.199.267.409.398.619.13.207.299.392.417.61.117.214.195.45.302.673.105.221.209.443.303.671.094.226.176.457.259.69.082.231.208.449.28.685.071.235.106.481.167.721.061.238.138.473.189.714s.052.49.092.734.073.485.103.73.143.481.163.727-.054.497-.044.743.101.491.101.737c0,.235-.093.468-.102.703s.03.472.011.706-.06.467-.088.7-.015.474-.053.705-.078.466-.125.696c-.048.231-.115.458-.173.685-.058.228-.12.456-.188.68-.069.226-.161.443-.24.664-.079.222-.179.436-.269.652-.091.218-.179.436-.28.647-.102.213-.213.419-.326.624-.114.206-.212.422-.338.62-.126.199-.25.401-.388.59-.139.19-.296.367-.447.546-.157.189-.363.334-.556.497-.186.157-.358.344-.573.478-.207.129-.448.207-.677.316-.221.105-.449.2-.687.288-.23.085-.456.193-.698.264-.237.069-.471.166-.716.222-.242.056-.497.058-.743.102s-.486.129-.732.163c-.249.034-.499.056-.746.081-.251.026-.505-.013-.75.004-.253.018-.503.017-.748.028-.255.011-.503.072-.744.077-.258.005-.508-.004-.745-.004ZM159.73,53.924c.283,0,.529.019.724-.032.27-.069.442-.239.58-.413.132-.167.18-.383.231-.655.038-.205.134-.432.144-.702.009-.218-.055-.46-.055-.723,0-.229-.008-.45-.018-.664-.012-.233-.008-.455-.039-.665-.034-.233-.11-.437-.178-.634-.076-.222-.117-.446-.249-.611-.136-.17-.313-.312-.524-.407-.182-.082-.402-.094-.65-.112-.035.035-.209.031-.348.031-.017,0-.034-.043-.022-.031.069.035-.042.561-.111.908-.011.106-.043.411-.057.789-.009.242.043.517.035.79s.007.547,0,.789c-.01.372-.043.671-.043.785,0,.208.017.208.017.416,0,.346.005.671.073.775.174.277.279.366.487.366Z"/><path class="cls-1" d="M176.926,64.066c-.239,0-.497-.052-.766-.069-.253-.017-.518.014-.774-.022-.261-.037-.527-.054-.77-.116-.267-.068-.491-.224-.706-.327-.26-.125-.513-.23-.647-.415-.153-.23-.266-.445-.346-.64-.1-.246-.138-.481-.195-.694-.023-.262-.072-.521-.087-.776-.016-.259.04-.519.032-.774-.008-.258-.012-.514-.012-.771,0-.212-.042-.432-.046-.657-.004-.216-.009-.437-.026-.657,0-.208,0-.407-.005-.606s.034-.4.017-.607c-.007-.235.002-.471-.006-.706s-.079-.468-.089-.704-.041-.47-.049-.705.013-.472.008-.707-.025-.471-.025-.706c0-.257-.009-.513-.005-.768s.01-.512.017-.767.067-.509.076-.765-.025-.511-.014-.765.065-.507.076-.762,0-.511.01-.767-.016-.513-.006-.77c.009-.251.062-.502.074-.756s-.007-.509.004-.763.061-.507.068-.761c.007-.256-.01-.511-.01-.763,0-.277.044-.277.046-.554.005-.221-.016-.466-.008-.724.007-.233-.01-.479.003-.728.013-.24.08-.481.103-.724s.044-.488.081-.725c.039-.248.045-.498.104-.725.064-.25.173-.474.266-.682.109-.241.218-.465.375-.622.139-.139.362-.265.708-.265.018,0-.046.067-.029.063.18-.036.365-.055.564-.063.183-.008.374-.07.573-.07.397,0,.397.024.794.024s.398.041.797.041.398-.051.797-.051c.346,0,.724.07,1.07.105.277,0,.336.004.405.073.017.017.051-.026.029-.015-.046.023-.143.022-.105.058.183.076.402.113.544.218.179.133.311.308.37.444.063.221.06.44.089.632.035.229.031.438.05.627.02.234.06.466.077.701s.042.468.057.703.011.47.024.705.012.47.023.705.075.467.085.702-.006.471.002.705.071.468.077.703.009.47.014.705-.075.471-.071.706.016.47.018.705-.009.47-.008.705.055.47.056.705-.036.47-.035.705.005.47.005.705c0,.415-.006.415-.006.831s.051.415.051.831c0,.239-.034.478-.035.718s.02.479.018.719-.05.479-.053.719-.01.479-.016.72.076.483.068.723-.106.476-.116.716.064.484.05.725-.116.475-.133.715.019.484-.002.724-.06.478-.084.718c-.025.199-.003.417-.032.639-.026.204-.051.419-.085.638-.032.207-.083.418-.126.633-.057.248-.158.527-.323.8-.134.222-.329.436-.562.654-.012.013.033-.024.023-.01-.145.145-.318.264-.519.354-.187.083-.393.142-.604.187-.207.045-.417.1-.624.118-.222.019-.44.005-.635.005Z"/><path class="cls-1" d="M193.707,63.962c-.238,0-.47-.055-.704-.076-.236-.021-.477.003-.708-.039s-.473-.064-.7-.126-.43-.207-.652-.288-.464-.111-.68-.211c-.213-.099-.428-.204-.635-.32-.205-.115-.396-.258-.595-.389-.196-.129-.407-.244-.595-.388-.186-.143-.327-.345-.506-.502-.176-.155-.348-.315-.517-.483-.166-.165-.359-.308-.518-.485-.156-.175-.306-.359-.454-.545-.146-.184-.289-.373-.426-.567-.136-.191-.228-.413-.355-.614-.125-.198-.231-.407-.348-.614-.116-.204-.28-.383-.387-.595-.105-.21-.228-.414-.325-.631-.095-.215-.162-.444-.248-.666-.085-.219-.183-.436-.259-.661-.075-.223-.157-.447-.222-.675-.065-.226-.125-.456-.181-.687-.055-.229-.055-.471-.1-.704-.045-.231-.128-.457-.162-.692-.034-.233-.021-.473-.045-.709-.024-.234-.066-.468-.08-.705-.014-.235-.06-.472-.064-.709,0-.248.049-.493.061-.736.012-.247.001-.495.026-.736.025-.246.097-.485.134-.725.038-.244.061-.49.112-.727.051-.242.153-.469.217-.704.065-.238.11-.48.187-.71.078-.235.137-.475.227-.701.091-.229.234-.435.337-.655.105-.223.206-.445.322-.659.118-.217.205-.45.333-.656.131-.209.294-.395.435-.593.143-.201.27-.413.423-.602.155-.191.305-.388.471-.567.167-.181.385-.311.562-.478.179-.169.359-.332.547-.488.189-.157.345-.357.543-.499.199-.144.418-.261.625-.389.209-.129.442-.215.658-.328.217-.114.416-.266.64-.363.225-.098.478-.121.709-.201s.456-.175.692-.238.478-.094.719-.138.478-.089.722-.114.484-.117.729-.121c.247,0,.492.03.73.052.245.022.479.102.714.146.241.045.469.123.699.19.234.068.468.126.691.215.226.09.448.183.663.293s.415.247.619.377.392.278.585.425c.192.146.411.259.592.421.179.161.336.347.505.522.167.174.371.318.527.505.154.185.303.379.447.575.143.194.211.441.343.645.131.202.264.403.385.613.12.209.222.427.332.643.11.215.261.41.361.631s.16.457.249.682.179.449.259.677.15.46.22.691.186.451.247.685c.062.235.086.479.137.715.052.238.121.472.163.709.043.24.036.486.068.724.033.242.058.482.08.721.023.244.127.479.139.718.012.245-.071.489-.071.727,0,.24.081.48.071.715-.01.24-.113.471-.134.706-.021.239.006.481-.025.714-.032.238-.086.47-.128.702-.043.236-.046.479-.099.709-.055.234-.112.468-.177.695-.066.231-.153.455-.23.678-.078.227-.161.451-.25.669-.091.222-.206.432-.307.645-.103.216-.226.42-.34.626-.116.21-.229.418-.356.617-.129.202-.266.396-.405.586-.141.193-.268.396-.42.577-.154.183-.306.369-.47.538-.166.172-.349.327-.525.484-.178.159-.388.277-.576.421-.189.145-.354.323-.552.452-.2.129-.428.211-.636.323s-.421.215-.638.31-.426.211-.651.288-.444.178-.675.236c-.229.058-.473.059-.708.097-.233.038-.464.113-.703.133-.235.019-.475-.014-.715-.014ZM192.013,55.17c.114.227.206.449.341.61.164.196.381.305.563.408.216.123.433.148.651.148.267,0,.518.019.733-.08.223-.103.381-.304.552-.491.16-.174.289-.374.407-.603.11-.212.221-.43.298-.673.073-.231.103-.477.149-.723.046-.243.145-.48.167-.725.022-.251.033-.502.033-.743,0-.245-.05-.489-.067-.733-.017-.246-.037-.489-.069-.73-.033-.245-.073-.486-.12-.724-.048-.245-.058-.495-.12-.728-.065-.242-.12-.484-.198-.709-.082-.239-.229-.446-.324-.661-.101-.232-.253-.461-.403-.69-.154-.235-.302-.468-.475-.643-.237-.24-.465-.376-.664-.376-.15.017-.08.035-.218.173-.153.148-.292.328-.428.55-.115.188-.268.374-.369.605-.09.206-.134.443-.212.676-.073.217-.181.432-.243.668-.059.224-.09.461-.138.697-.047.23-.051.47-.087.708-.035.234-.107.464-.132.701s-.013.476-.025.712c-.013.24-.06.476-.06.711s.026.463.036.682c.011.239-.018.47.007.683.028.243.092.466.141.668.06.246.159.443.256.616.013.017.007,0,.017.015Z"/><path class="cls-1" d="M85.578,63.504c-.014-.244-.032-.488-.045-.733s-.018-.489-.028-.734-.072-.487-.082-.732.014-.491.004-.736-.042-.489-.052-.734.023-.492.011-.736-.022-.49-.037-.735-.117-.483-.134-.727c-.016-.23.048-.468.018-.696s-.149-.444-.183-.672.017-.467-.014-.695c0-.026-.082-.566-.092-.803-.01-.249,0-.499-.006-.749s-.058-.498-.062-.748c-.004-.234-.013-.468-.018-.702s.003-.468-.003-.702-.016-.468-.024-.702.003-.469-.006-.703c-.011-.282-.006-.566-.028-.848s-.063-.562-.117-.84c-.043-.22-.212-.756-.22-.758-.023-.217-.061-.434-.068-.652s-.021-.438-.025-.656c-.004-.22.006-.438-.007-.654-.014-.219.007-.441-.031-.653-.038-.215-.141-.414-.218-.618-.039-.235-.031-.476-.066-.701-.037-.236-.07-.467-.104-.692-.035-.238-.101-.464-.134-.689-.035-.239-.103-.465-.137-.689-.036-.24-.024-.478-.06-.699-.039-.24-.125-.46-.168-.678-.047-.243-.089-.471-.143-.685-.062-.242-.071-.483-.146-.687-.087-.236-.175-.458-.288-.64-.13-.209-.321-.352-.497-.488-.179-.138-.368-.279-.606-.337-.227-.055-.454-.066-.666-.059-.225.007-.444.057-.653.121s-.432.121-.628.227c-.192.104-.344.281-.524.412-.178.129-.385.226-.553.369-.17.144-.289.346-.451.491-.234.208-.499.351-.731.552-.131-.188-.251-.363-.388-.542-.142-.186-.328-.325-.488-.477-.194-.185-.387-.362-.623-.475-.24-.115-.497-.173-.758-.209s-.532-.084-.793-.034c-.256.049-.483.203-.716.339-.16.093-.403.199-.626.393-.173.15-.351.331-.536.51-.178.171-.314.391-.484.564-.187.189-.41.325-.564.485-.251.26-.419.484-.495.553-.05-.028-.357-.205-.728-.412-.235-.131-.5-.268-.734-.409-.31-.188-.577-.364-.681-.474-.14-.149-.292-.314-.485-.424-.183-.104-.406-.137-.613-.195s-.416-.116-.627-.116c-.219,0-.441.013-.637.086-.246.092-.45.222-.647.329-.222.12-.424.244-.613.383-.192.141-.354.315-.542.475-.174.148-.369.286-.565.45-.171.144-.316.326-.478.5-.156.167-.333.308-.49.479-.2-.151-.429-.248-.637-.386-.211-.14-.409-.296-.629-.408-.227-.116-.462-.192-.698-.263-.241-.073-.479-.103-.73-.112-.243-.01-.489-.038-.742.026-.228.058-.44.187-.677.317-.189.104-.431.153-.625.296-.178.131-.327.317-.505.475-.168.15-.299.344-.462.513-.158.164-.373.281-.522.458-.148.176-.26.383-.395.569-.137.188-.252.413-.371.606-.238.007-.496-.016-.734-.01s-.475.044-.712.049-.477-.066-.715-.061-.474.077-.712.081-.476-.054-.714-.051-.475-.004-.713-.002-.475.079-.712.081-.476-.045-.713-.043-.475.047-.713.047-.475-.067-.713-.067-.475.045-.713.045-.475.013-.713.012-.475-.031-.713-.032-.475-.045-.713-.046-.476.088-.713.086-.475-.074-.713-.075-.476.064-.714.062-.475-.072-.713-.074-.463.021-.701.019c.216-.114.43-.201.646-.316s.398-.29.614-.404.465-.164.68-.279.432-.226.648-.34.43-.231.645-.346.407-.273.623-.388.421-.247.637-.361.436-.219.652-.333.446-.201.662-.314.418-.255.634-.367.431-.23.648-.342.446-.201.663-.312.465-.163.682-.274.41-.219.628-.329c.291.141.631.201,1.018.214.169.006.435,0,.731.058.226.044.465.14.709.197.25.059.511.062.727.118.368.096.617.26.674.285.234.105.494.14.736.187.252.05.503.052.749.035.253-.018.517-.016.75-.111.229-.093.452-.236.646-.408.178-.159.336-.368.472-.599.126-.213.204-.456.295-.694.088-.231.121-.482.194-.723.072-.239.186-.467.258-.704.073-.242.143-.484.233-.711.067-.169.107-.379.168-.552.311.055.629.169.919.232.243.053.508.118.781.173.261.053.546.028.8.097.271.074.531.175.754.283.221.108.459.179.714.227.247.047.499.136.752.12.256-.016.521-.06.755-.148.238-.089.452-.249.642-.42.181-.163.284-.394.395-.639.079-.175.183-.378.245-.617.054-.211.134-.429.175-.649.044-.234.047-.469.076-.668.053-.361.088-.614.095-.648.262.08.527.156.776.24.281.096.541.195.764.274.21.074.436.114.641.204s.403.194.607.285c.205.092.388.236.596.314s.441.079.659.129c.215.049.427.087.655.094.262.008.532.021.782-.067.246-.087.452-.266.662-.426s.43-.316.579-.53c.151-.217.227-.475.291-.728.063-.252.139-.492.187-.738s.074-.498.123-.751c.046-.241.131-.47.191-.727.103.053.258.15.883.464.157.079.368.159.594.247.193.075.396.171.603.235.216.068.445.071.638.11.265.054.484.094.621.056.249-.068.447-.142.586-.262.165-.143.245-.345.353-.537.096-.171.227-.332.357-.521.129-.189.193-.427.272-.661.073-.216.148-.443.188-.685.037-.229.018-.471.032-.714.014-.236.072-.473.071-.713-.001-.241-.044-.48-.055-.716-.011-.245.037-.488.023-.717-.015-.252-.115-.487-.124-.707-.013-.288-.021-.557-.077-.834-.053-.259-.136-.515-.255-.798-.009-.022-.123-.262-.284-.604-.085-.179-.152-.4-.246-.621-.085-.201-.177-.409-.252-.62-.062-.124-.203-.321-.3-.563-.079-.197-.103-.432-.175-.624-.109-.291-.195-.531-.209-.594-.064-.271-.218-.512-.327-.77s-.162-.539-.279-.79c-.091-.196-.165-.4-.259-.593s-.212-.376-.308-.569-.253-.355-.35-.547-.142-.411-.238-.604c-.11-.221-.208-.42-.284-.626-.078-.211-.157-.418-.231-.645-.065-.201-.108-.423-.193-.66-.082-.23-.152-.466-.25-.687s-.263-.413-.371-.631-.208-.438-.317-.654-.212-.437-.317-.656c-.104-.218-.239-.423-.341-.642s-.169-.455-.27-.675-.243-.422-.342-.643-.135-.47-.233-.692-.175-.453-.272-.674-.27-.41-.368-.632-.187-.447-.285-.668-.19-.445-.289-.666c-.107-.239-.252-.441-.44-.607s-.388-.344-.628-.438c-.235-.092-.501-.11-.756-.132s-.521-.048-.767,0c-.256.05-.515.134-.729.259-.279.163-.457.42-.631.643-.211.099-.442.163-.652.264s-.408.227-.617.33-.437.167-.645.271-.392.258-.599.363-.427.189-.633.296-.381.277-.587.385-.438.168-.644.276-.428.188-.634.296-.393.252-.599.361-.425.192-.631.301-.385.268-.591.376-.41.221-.616.329-.433.177-.64.284-.405.232-.612.337-.409.224-.617.328-.418.206-.626.309c-.214.106-.438.192-.652.298s-.445.177-.659.283-.396.275-.61.381-.462.143-.676.25-.388.292-.601.399-.423.22-.637.328-.452.163-.665.271-.426.215-.639.324-.417.233-.629.342-.449.171-.661.28-.419.229-.631.338-.41.246-.622.356-.41.246-.621.356-.414.238-.625.349-.453.165-.664.276-.436.197-.647.309-.383.296-.593.409c-.208.112-.45.162-.658.275s-.414.227-.622.34-.402.25-.61.363-.433.193-.641.307-.398.257-.605.371-.424.211-.631.326-.423.213-.63.328-.377.296-.584.411-.45.165-.657.279-.38.291-.587.406-.419.22-.626.334-.429.202-.636.316-.383.286-.59.4-.447.169-.655.283-.425.209-.633.323-.38.292-.588.406-.418.222-.626.335-.416.226-.624.339-.45.163-.659.275-.379.296-.588.407-.436.189-.645.3-.402.253-.612.363-.418.222-.629.33-.459.143-.67.251-.415.228-.626.335-.402.255-.613.36-.433.233-.646.338c-.061-.099-.202-.321-.322-.506-.139-.215-.24-.444-.269-.496-.108-.187-.232-.366-.348-.547s-.231-.366-.367-.533c-.135-.166-.278-.331-.443-.474-.175-.152-.36-.3-.55-.444-.187-.141-.369-.295-.562-.43-.195-.136-.413-.236-.605-.366-.194-.131-.397-.25-.604-.365-.205-.114-.405-.242-.619-.342-.213-.098-.43-.196-.65-.281s-.441-.174-.665-.245c-.225-.072-.465-.097-.691-.156-.23-.06-.455-.135-.683-.182-.254-.053-.506-.087-.754-.105-.253-.018-.507-.031-.76-.02-.249.011-.503.028-.758.06-.139.018-.407.106-.716.148-.238.033-.501.048-.735.081-.336.048-.628.063-.726.081-.24.055-.462.169-.688.254-.229.087-.442.201-.657.313-.216.113-.434.22-.637.352-.204.133-.426.243-.619.389-.195.148-.39.296-.574.451-.188.158-.327.37-.506.529-.195.173-.365.335-.509.499-.175.198-.355.36-.474.544-.141.22-.241.438-.333.637-.107.232-.205.444-.295.647-.114.257-.208.426-.271.567-.096.215-.121.368-.199.596-.099.288-.116.635-.16.951-.243-.071-.519-.148-.766-.204-.249-.056-.489-.153-.737-.192-.253-.04-.513-.003-.761-.025-.258-.023-.508-.064-.754-.066-.23-.002-.465.004-.705.022-.231.017-.464.054-.7.089-.231.034-.472.031-.704.081-.229.05-.465.088-.693.153-.226.065-.451.146-.673.226s-.409.248-.625.343c-.217.095-.455.143-.662.253-.21.112-.426.216-.622.343-.2.129-.355.318-.537.463-.187.148-.359.304-.524.468-.176.176-.404.301-.567.484-.166.186-.31.39-.461.583-.153.195-.287.405-.424.608-.139.205-.235.435-.358.648-.123.215-.303.4-.408.622s-.211.45-.297.682-.135.477-.2.716c-.065.236-.119.478-.163.723-.043.24-.104.484-.126.733-.022.243-.022.493-.023.744-.001.236.095.463.128.694s.063.46.123.688c.059.226.118.451.197.672.078.22.131.451.222.667.091.217.225.416.322.63s.15.445.245.655c.122.268.219.545.343.808s.314.489.485.731c.159.225.289.463.467.657.182.199.363.385.549.577.068.215.167.424.206.665.036.227.01.469.035.705.025.234.124.46.154.69.031.239.021.479.072.7.055.237.112.473.129.713.017.239.023.481.02.722-.002.24-.077.479-.08.719s-.004.484.009.723c.013.239.102.472.124.709s.023.477.053.714.07.472.107.707.05.475.094.71.074.472.123.706.173.45.226.683.087.469.143.701.056.477.114.709.194.443.253.674c.058.226.076.464.138.69s.155.443.22.668.122.452.192.676.156.442.232.663.131.451.213.67.202.424.29.64c.089.218.102.467.197.68.097.215.243.406.348.615.105.21.196.428.31.632.115.205.276.381.401.579s.26.388.395.578.243.402.391.583.264.393.423.565.347.318.518.478c.17.159.373.281.556.429.181.146.355.302.55.436.191.132.375.279.579.398.2.117.396.252.61.356.208.101.427.194.648.283.224.09.447.179.671.259.226.081.462.133.689.205.229.073.468.106.697.17.231.064.464.114.696.169.233.055.469.089.703.136s.459.145.695.183.475.057.712.088.478.017.716.041.472.076.711.092.477.012.716.021.476.065.715.068c.238.003.477-.039.716-.042s.478.038.717.029.476-.042.715-.055c.237-.013.475-.035.713-.053s.474-.05.713-.071c.237-.022.472-.067.71-.092s.482-.01.721-.039c.229-.028.459-.031.688-.054s.456-.073.685-.091.462.009.691-.006.454-.121.683-.133.461.014.69.002.461.023.691.011.457-.065.687-.077.46-.021.691-.036c.227-.014.461-.013.698-.028.231-.014.464-.05.699-.069.233-.019.471,0,.704-.027.234-.028.458-.116.686-.158.234-.043.459-.109.68-.17.233-.032.471-.061.708-.087.234-.026.471-.044.708-.065.235-.021.476.02.714.004.236-.016.473-.022.71-.034s.472-.051.71-.059.475-.001.712-.006.474-.054.712-.056.476.005.714.005.476.026.713.028c.24.002.479-.038.718-.034s.477.062.715.067c.239.005.477-.015.714-.01.238.006.474.072.709.078.239.006.478-.049.714-.043s.47.008.702.013c.245.005.49-.011.735-.004s.489.043.734.051.49.003.735.013.488.059.732.07.49.005.735.017.49.006.734.019.49.009.734.022.488.044.732.057.49.002.734.014.486.093.73.105.489.019.734.029.49.002.734.012.491-.035.735-.027.489.017.734.023.489.016.734.02.489.083.733.084.49-.018.735-.02c.237-.001.474-.013.71-.015s.473-.04.71-.042.474.023.711.02.474.029.711.026.473-.02.71-.023.474.008.711.005.472-.083.709-.087.475.071.712.067.472-.095.709-.1.474.012.711.007.474-.01.711-.014.474,0,.711-.005.474.017.711.012.474-.01.71-.015.473-.062.709-.067.475.053.712.049.473-.02.71-.025.473-.015.71-.019c.235-.004.471-.045.706-.047s.471.035.707.035.471.006.706.007.471-.02.707-.017.47.048.706.052.472-.052.707-.047.471,0,.707.006.471.011.706.017.47.04.706.047.47.055.705.062.47.033.706.039.473-.072.708-.066.47.059.705.064.471.026.706.03.471-.039.707-.036.471-.02.706-.019.47.013.706.013.47-.006.705-.008.471.045.706.04c.323,0,.648-.08.948-.212.151-.066.287-.139.414-.231.216-.146.366-.377.532-.574.169-.201.286-.423.375-.665.088-.239.202-.483.186-.753ZM69.706,60.889c-.241.004-.482.014-.724.018s-.483.004-.724.009-.482.061-.723.066-.483-.023-.725-.018-.482.032-.724.038-.484-.034-.725-.029-.483.008-.724.013-.481.098-.722.103-.485-.079-.726-.075-.481.095-.723.1-.484-.079-.726-.075-.482.062-.723.065-.483-.011-.725-.007-.482.053-.724.056-.483.009-.725.011-.483-.011-.725-.009-.483.004-.724.005-.483-.019-.724-.018-.483-.016-.724-.017c-.236,0-.473.006-.709.003s-.473-.011-.709-.016-.473.014-.709.007-.473-.003-.709-.012-.472-.033-.708-.043-.47-.063-.706-.074-.474.029-.71.017-.47-.07-.706-.082-.472-.026-.708-.038-.474.007-.709-.005-.474.011-.71-.001-.469-.072-.705-.083-.474.024-.71.014-.471-.028-.708-.038-.47-.078-.706-.086-.472-.03-.708-.035-.474.042-.71.038-.472-.052-.708-.054-.473.009-.709.01c-.233,0-.468.012-.704.012-.234,0-.469-.038-.705-.038-.233,0-.468.064-.703.063s-.469-.056-.704-.056-.47.072-.706.072-.471-.056-.707-.054-.472.014-.708.018-.471.062-.707.068-.473-.023-.709-.014-.471.038-.707.052-.475-.027-.711-.01-.466.104-.7.126-.477-.021-.711.006c-.235.027-.469.068-.702.101s-.458.127-.689.166c-.233.039-.475.017-.705.063-.3.024-.591.081-.909.101-.237.015-.476.014-.713.025s-.475.034-.712.044-.475.021-.713.031-.477-.017-.714-.005-.471.082-.709.098-.476.008-.713.03-.476.025-.712.054c-.251.031-.499.092-.75.118s-.504.043-.756.065-.502.073-.754.092-.506.01-.759.026-.504.055-.756.069-.507-.017-.76-.005-.503.082-.756.093-.507-.01-.76,0c-.252.01-.502.031-.747.021-.251-.011-.502-.018-.747-.047-.247-.03-.485-.121-.728-.168s-.495-.06-.736-.122c-.239-.061-.453-.215-.691-.287-.236-.072-.486-.1-.722-.18-.233-.079-.483-.115-.719-.2-.231-.083-.419-.255-.627-.363-.216-.113-.439-.204-.632-.342-.197-.14-.406-.268-.58-.431s-.316-.364-.47-.548c-.153-.183-.324-.357-.459-.556-.133-.197-.193-.441-.31-.653-.115-.208-.284-.391-.385-.61-.1-.216-.137-.462-.225-.686-.087-.222-.159-.45-.236-.678-.077-.226-.22-.432-.289-.662s-.087-.475-.149-.706c-.062-.232-.165-.454-.222-.685-.058-.236-.048-.486-.103-.719-.055-.236-.153-.458-.207-.688-.055-.237-.123-.467-.178-.694-.059-.244-.085-.492-.137-.732-.053-.245-.059-.496-.103-.739-.045-.245-.174-.474-.21-.719s.003-.499-.024-.746-.115-.486-.131-.734c-.016-.245.04-.496.035-.745-.006-.245-.021-.492-.016-.742.004-.239.012-.472-.001-.698-.014-.235-.106-.457-.136-.685s.004-.467-.04-.698c-.042-.223-.087-.45-.139-.683-.051-.229-.083-.455-.105-.686-.022-.232-.087-.461-.105-.693s-.062-.457-.103-.687c-.04-.226-.085-.445-.17-.667-.028-.075-.052-.193-.121-.435-.058-.205-.166-.379-.27-.557s-.229-.332-.379-.483c-.087-.091-.29-.253-.546-.468-.167-.14-.299-.355-.465-.56-.145-.179-.275-.372-.377-.608-.105-.241-.218-.464-.295-.686-.09-.261-.205-.491-.26-.702-.09-.344-.097-.613-.113-.738-.02-.148-.077-.376-.047-.624.024-.198.151-.394.211-.596.05-.166.073-.379.161-.587.077-.182.156-.379.263-.559.106-.178.273-.311.41-.458.158-.169.325-.327.522-.474.182-.136.372-.27.593-.385.2-.104.404-.226.641-.312.233-.084.441-.192.647-.238.236-.053.469-.036.686-.05.23-.015.455-.019.682-.003.212.015.472.036.733.097.239.055.47.183.7.256.265.084.501.187.687.267.17.073.4.111.587.238.175.119.345.264.503.392.193.157.366.304.479.413.131.126.231.399.369.623.182.295.321.582.337.621.083.208.197.405.284.612s.228.39.317.596c.103.237.222.453.415.621.188.165.397.324.638.42.235.093.497.122.751.146.257.025.518.037.763-.011.258-.05.498-.153.707-.287.215-.139.403-.289.555-.456.168-.185.254-.409.349-.621.098-.22.165-.439.19-.679.024-.233.075-.475.036-.718-.037-.229-.169-.445-.257-.677-.011-.109-.046-.329-.121-.561-.059-.182-.085-.398-.186-.547-.152-.223-.31-.433-.406-.676-.095-.239-.134-.504-.244-.748-.117-.259-.267-.458-.402-.753-.05-.11-.074-.391-.111-.708-.027-.229-.067-.479-.082-.711-.02-.307.013-.576.023-.706.013-.171.072-.391.152-.602.091-.239.19-.461.264-.564.064-.094.243-.335.508-.622.164-.178.329-.409.572-.576.211-.146.464-.259.735-.352.251-.087.501-.123.736-.174.255-.056.496-.132.741-.15.254-.019.503.025.755.042.247.016.5.003.755.049.264.047.515.152.754.254.261.111.522.205.728.331.314.193.519.419.623.494.118.085.414.234.702.516.184.181.324.44.483.713.117.2.283.348.354.51.137.314.18.543.196.58.055.249.127.495.211.738.085.246.173.487.291.71.123.233.24.465.402.654.17.199.371.364.588.494.214.129.463.167.727.208.234.036.484.096.76.048.105-.006.356-.087.597-.175.279-.101.522-.269.547-.287.218-.101.468-.136.685-.239s.443-.187.66-.291.422-.23.638-.336.402-.271.617-.377.456-.162.67-.27.423-.229.637-.338.422-.229.636-.339.44-.196.653-.307.437-.201.65-.313.394-.283.606-.395.429-.216.641-.33.427-.221.638-.335.406-.259.617-.374.44-.197.651-.312.399-.272.609-.388.454-.172.665-.288.432-.212.642-.329.381-.305.591-.421.425-.225.635-.342.423-.228.633-.345.424-.226.634-.343.446-.187.656-.304.4-.27.61-.387.44-.198.65-.315.425-.225.635-.341.393-.284.603-.4.442-.194.653-.309.409-.253.62-.367.443-.19.654-.304.397-.275.608-.388c.21-.113.433-.202.644-.314s.388-.287.599-.398.447-.175.659-.286.438-.193.65-.303.405-.256.617-.366.437-.194.649-.304.398-.27.61-.379.422-.223.635-.331.445-.179.657-.287.416-.234.629-.342.42-.228.633-.335.428-.212.641-.319.436-.194.65-.301.444-.178.658-.285.396-.275.61-.381.462-.142.676-.248.389-.29.603-.396c.215-.106.426-.219.641-.327s.454-.164.668-.273.428-.217.641-.327.418-.236.631-.346.45-.174.663-.285.42-.232.633-.343.411-.249.624-.36.412-.248.624-.359.417-.239.629-.35.456-.164.669-.274.44-.193.653-.303.39-.291.604-.4.432-.152.647-.26c.092.206.165.391.257.596s.21.4.302.606.149.427.242.633.216.397.308.603c.106.235.206.476.325.706s.224.466.34.697.297.432.395.671c0,.002.092.583.153.782.08.257.239.488.34.738s.197.502.306.748c.094.212.168.437.274.648.106.209.273.387.383.595s.159.447.265.656c.107.211.19.43.285.642.097.217.253.406.328.625.077.224.136.455.18.682.042.216.105.418.182.621s.104.395.2.591c-.233.119-.432.278-.686.373s-.523.146-.771.229c-.268.09-.51.211-.739.302-.218.095-.431.195-.646.294s-.466.126-.679.23-.42.223-.631.33-.401.258-.611.368-.409.24-.618.352-.428.206-.635.32-.434.196-.641.312-.406.246-.612.363-.419.223-.625.34c-.199.116-.404.22-.606.329s-.407.214-.612.317-.42.186-.628.284-.4.229-.61.324-.418.191-.629.283-.431.161-.642.252-.425.176-.636.267-.426.172-.637.265-.403.225-.613.321c-.215.098-.438.179-.65.282s-.424.207-.634.313-.425.204-.634.311-.421.211-.63.319-.393.263-.602.37-.428.195-.638.301-.433.184-.644.286-.406.241-.62.339-.423.206-.64.298c-.225.098-.456.179-.68.279s-.463.165-.686.266-.449.197-.671.3-.415.269-.636.374-.445.204-.666.311-.462.169-.682.277-.435.226-.654.334-.445.206-.663.316-.444.207-.662.318-.42.254-.638.366-.411.271-.628.384-.445.206-.662.319-.457.184-.673.298-.401.29-.617.405-.446.204-.662.32-.433.228-.649.344-.427.241-.642.357-.454.191-.669.307-.441.214-.657.33-.427.239-.643.355-.39.308-.606.424-.461.178-.677.293-.421.21-.637.325c-.157-.163-.348-.263-.523-.413-.172-.148-.352-.285-.538-.42-.184-.133-.331-.326-.527-.445-.194-.119-.406-.214-.609-.32s-.417-.19-.626-.282-.437-.139-.65-.217c-.216-.079-.411-.22-.629-.284-.221-.065-.443-.132-.663-.181-.226-.051-.459-.064-.681-.098-.24-.036-.48-.063-.715-.083-.241-.02-.481-.058-.719-.06-.241-.002-.482.017-.72.032-.239.016-.468.119-.705.153-.236.034-.471.059-.706.111-.232.051-.465.099-.696.168-.227.067-.465.109-.693.192-.236.087-.443.242-.65.386-.209.145-.431.28-.593.471-.164.195-.319.411-.416.642s-.097.495-.109.752c-.011.242-.032.502.05.756.077.236.193.478.34.69.144.207.36.362.555.525.196.164.388.348.62.446.234.1.499.087.753.099.246.011.499.022.748-.07.173-.064.336-.153.509-.215s.348-.122.526-.171c.1-.027.45-.028.843-.056.279-.019.571-.02.835.029.228.042.506.034.781.115.246.073.494.184.745.286.249.101.497.21.722.337.232.131.441.304.642.482.203.179.36.386.488.621.123.227.272.461.287.748.014.279.005.541.01.792.005.27-.055.527-.069.784-.014.259.039.524-.004.789-.04.25-.118.459-.157.661-.043.224-.059.44-.12.662-.054.197-.131.402-.216.64-.07.197-.171.401-.297.576-.132.183-.301.335-.44.473-.232.23-.418.419-.468.45-.215.134-.48.182-.705.296s-.434.265-.666.366c-.237.103-.453.242-.621.434-.165.188-.252.432-.348.673-.093.235-.144.477-.168.731-.025.257-.056.511-.008.756.05.257.099.525.234.733.145.226.337.403.513.56.196.174.429.271.654.366.232.097.467.172.72.191.244.018.499.026.753-.025.238-.047.493-.101.732-.204.226-.098.448-.208.662-.32.218-.114.435-.234.64-.363.208-.131.396-.292.59-.437.196-.147.362-.329.544-.491.182-.163.349-.338.516-.516s.311-.371.462-.563c.15-.191.337-.355.471-.56.132-.202.243-.421.359-.637.114-.213.184-.448.282-.674.096-.221.216-.434.296-.668.078-.225.125-.457.179-.688s.146-.455.182-.69c.005-.033-.018-.088-.013-.121.242.002.487.05.729.052s.485-.018.727-.015.485,0,.727.002.485-.006.727-.003.485-.016.727-.012.484.049.726.052.484.027.726.03.485-.025.727-.022.484.049.726.051.485-.088.728-.086.484.042.726.043.484.048.726.049.485-.041.727-.041.484.004.727.003.484.012.727.01.484-.024.726-.027.485.036.727.032.483-.064.725-.069.484-.028.726-.035.484-.013.726-.021.484-.011.726-.021.486.039.728.028.484-.016.726-.03.482-.057.724-.073c.244-.014.489-.015.734-.029s.487-.073.732-.087.491-.02.736-.033.492-.003.738-.015.49-.069.736-.08.495.03.741.019.492-.048.738-.058.495.04.742.031.491-.078.738-.086.494-.018.74-.024.494-.034.741-.039.495.019.742.016.494-.021.741-.022.494.037.74.037.494-.015.741-.012.493-.011.738-.006c.239.007.478,0,.716.009s.475.037.713.047.476-.003.713.006.472.088.71.095.475.011.712.016.475-.01.713-.009.474-.053.712-.057.473-.009.711-.019c.217-.009.444-.025.682-.054.221-.027.46.016.692-.017.224-.032.449-.085.677-.115s.456-.065.682-.082c.233-.018.482-.054.706-.048.007.244,0,.505.03.748.029.238.039.486.106.727.059.211.117.432.152.671.032.221.04.452.057.691.016.226.101.455.107.69.006.23-.072.465-.071.699s.085.468.083.701c-.002.235-.024.468-.024.696,0,.238.003.471.01.695.008.273.012.543.029.813.018.271.014.543.042.813.028.268.062.537.102.808.017.116.099.349.126.585.029.252-.007.507-.003.601.013.266.036.532.049.798s.032.532.044.798.063.53.076.796-.012.531,0,.797c-.242-.002-.48-.012-.722-.015s-.484.016-.726.012-.482-.051-.724-.056-.485.05-.726.044-.484-.001-.725-.008-.483-.012-.725-.018-.483-.04-.725-.046-.483-.054-.724-.06-.483-.031-.725-.036-.485.074-.727.07-.483-.055-.725-.058-.484-.021-.725-.023-.484.044-.726.044-.483.026-.725.029-.485-.076-.726-.072ZM34.576,42.434c-.02-.009-.02.044,0,.054.014-.008,0-.054,0-.054Z"/><path class="cls-1" d="M24.206,28.904c-.033-.144-.17-.322-.266-.508-.098-.188-.187-.382-.264-.5-.132-.2-.319-.322-.485-.452-.179-.14-.362-.235-.576-.299-.206-.061-.415-.171-.649-.168-.211.003-.44.041-.671.093-.252.057-.54.109-.798.203-.273.1-.502.28-.668.473-.167.194-.315.418-.382.675-.064.243-.085.514-.079.778.006.259.036.527.093.775.048.214.173.4.271.585.102.191.201.384.347.538.124.13.297.263.465.395.169.133.332.289.501.354.219.083.447.105.666.087.206-.017.405-.151.636-.203.238-.054.523-.094.755-.244.237-.153.398-.4.557-.568.179-.189.384-.342.475-.556.094-.221.093-.474.1-.725.007-.228.031-.478-.027-.733Z"/><path class="cls-1" d="M8.894,38.444c-.14-.048-.319-.14-.493-.256-.176-.118-.392-.185-.501-.275-.184-.153-.325-.342-.435-.522-.119-.193-.155-.42-.195-.64-.038-.211-.018-.426.011-.658.026-.21.057-.426.134-.65.084-.244.171-.516.292-.762.129-.26.296-.474.505-.618.211-.145.447-.213.71-.252.248-.037.507-.086.769-.051.257.034.507.121.748.204.208.072.428.121.601.24.179.122.345.277.482.439.116.137.178.36.291.541.113.183.212.362.258.536.059.227.038.421-.004.637-.039.203-.059.419-.136.644-.08.231-.258.445-.433.659-.178.218-.374.411-.558.551-.207.157-.414.257-.637.324-.23.069-.461.141-.712.121-.227-.018-.449-.128-.696-.213Z"/></g></svg>