<?xml version="1.0" encoding="UTF-8"?><svg id="Calque_2" xmlns="http://www.w3.org/2000/svg" viewBox="0 0 65.442 61.025"><defs><style>.cls-1{fill:#c40e50;}</style></defs><g id="Calque_1-2"><path class="cls-1" d="M61.288,48.104l-.086-.262-.083-.117-.026-.035-.354-.313h-.007s-.013-.01-.013-.01l-.579-.422-.642-.322-.699-.156-.7-.142-.713-.041-.71.021-.717-.07-.718.053-.754-.046-.755-.006-.753-.069-.756.014-.752-.09-.757.031-.753-.067-.756.015-.751-.1-.695.052-.69-.065-.692-.003-.691-.011-.691-.005-.69-.055-.691.035-.691-.042-.691.011-.69.018-.692.034-.733.091-.738.02-.739.014-.733.081-.735.061-.733.079-.73.11-.732.09h-.74s-.737.026-.737.026l-.735.051-.734.089-.738.047h-.739s-.736-.084-.736-.084l-.738.013-.735-.055-.731-.093-.735-.035-.734-.054-.735-.046-.732-.073-.729-.119-.733-.069-.739.004h-.718s-.717-.026-.717-.026l-.715-.09-.718.019-.719.036-.718-.078-.718-.012-.718.045-.733.041-.732.004-.731-.035-.731.004-.731-.027-.731-.014-.731.014-.732.069-.733-.061-.686-.036-.687.051-.689-.081-.686.107-.682.087-.683.107-.613.32-.562.409-.451.527-.328.616-.164.681-.096.693.004.7-.018.699.056.756.017.755-.045.755.051.755-.081.753-.01.754-.048.742-.003.745.034.745.099.739.288.684.368.641.59.443.661.321.636.18.648.145.664.029.664.013.667.051.658.07.773.051.775.04.773-.088.694.006.691-.05.688-.093.696.023.69-.069.69-.076.692-.05.692-.046.689-.08.693-.026.692-.039.69-.068.693-.02.725-.063.729-.032.729.042.727.022h.728s.727.036.727.036l.728.007.727.043.728.024.729-.006.725-.087.723-.074.749.022.742-.038.742-.063.743-.039.744-.021.744.018.745.012.745.015.745.012.745.067.745-.015.741-.028.701.041.7-.012.7.002.701.027.699-.042.699-.012.698-.048.7-.017.702-.005.754-.028.753-.068.753.052.755-.064.752.046.752.047.752.035.755.031.748.078.746.093.752-.034.745.104.752-.009.681.038.684.007.683.016.684.007.687-.035.671-.156.636-.26.58-.381.565-.4.403-.569.214-.66.077-.685.077-.684.039-.692-.026-.693-.005-.735.098-.73.011-.735.115-.728-.009-.716.008-.715.031-.715.01-.721-.133-.707-.257-.669ZM57.541,50.757l-.699-.089-.704-.017-.703.02-.701.056-.701.045-.702.061-.701.049-.698.047-.751.108-.757.017-.755.043-.755.058-.757-.056-.755.066-.756-.03-.756.007-.755-.06-.738.029-.738-.057-.735.079-.737-.007-.733.084-.739-.026-.729.126-.737.013-.733.075-.734.063-.734.061h-.737s-.734.072-.734.072l-.737-.024-.737.006h-.696s-.696.004-.696.004l-.696.052-.697-.028-.697-.043-.696.016-.696-.012h-.696s-.697.021-.697.021l-.696-.005-.697-.102-.697-.081-.699-.057-.703-.012-.7-.042-.697-.067-.693-.127h-.703s-.7-.041-.7-.041l-.746-.069-.748-.024-.746-.051-.746-.049-.743-.079-.739-.125-.744-.071-.749.009-.747.016h-.7s-.701-.062-.701-.062l-.7.047-.699.064-.702-.052-.7.013-.698.067-.699.057-.7.01-.678-.218-.452-.536-.079-.694.244-.64.414-.37.55-.184.7.059.701.011.698-.089.702.054.697-.1.7-.022.702.048.699-.054.701-.003.748.022.745.067.746.049.742.087.746.048.742.093.749.014.746.04.744.08.704-.025.696.112.7.04.697.078.699.056.697.067.696.08.702.004.698.084.698-.017.695.021.696.008.696.035.696-.034.696-.021.697.029.697.044.696-.003h.696s.59-.077.59-.077l.591.035.705-.027.702-.08.708.03.702-.067.701-.077.703-.052.703-.046.701-.076.705-.017.704-.023.703-.041.705.019.704-.021h.705s.703.055.703.055l.705.016.705-.021.706.003.704-.031.656.003.656-.011.656-.033.651-.1.655-.068.706.027.7-.056.697-.093.699-.074.702-.051h.704s.703.017.703.017l.702.049.68.25.393.594.122.811-.381.741-.817.179Z"/><path class="cls-1" d="M65.38,39.082l-.074-.721-.19-.7-.242-.682-.247-.682-.328-.648-.399-.606-.415-.594-.474-.548-.478-.544-.517-.508-.558-.463-.621-.376-.622-.365-.601-.41-.666-.291-.699-.195-.709-.142-.726-.105-.726-.112-.73-.078-.731-.056-.733-.035-.731-.076-.734.016-.734.034-.733-.033-.732.018h-.734s-.735-.031-.735-.031l-.735.032-.709-.006-.709.024-.71-.013-.709-.029-.709-.007-.71.043-.708-.068-.711.056-.708-.045-.708-.038-.708-.018-.709-.006-.707-.056-.706-.077-.712.045-.706-.096-.711.015-.736-.039-.737-.016-.736-.05-.733-.081-.732-.095-.735-.047-.736-.026-.738.002-.73-.117-.734-.057-.737-.015-.737.002-.733-.068-.734-.061-.737.005-.736.016-.737-.055-.714.047-.715-.059-.715.06-.715.041-.716-.005-.718-.029-.716.044-.714.088-.715.051-.716.044-.714.069-.711.098-.72.031-.703.149-.702.147-.705.127-.709.117-.702.157-.677.245-.693.192-.654.302-.669.257-.655.292-.629.343-.652.304-.614.374-.569.439-.542.47-.574.432-.478.538-.561.457-.414.637-.511.557-.368.66-.369.654-.359.661-.303.691-.24.717-.067.754.017.8.416.682.671.443.748-.005.747-.113.703-.281.67-.345.688-.261.697-.231.698-.231.702-.226.718-.17.728-.122.737-.052.728-.117.735-.055.734-.058.736-.081.735-.067.74-.023.729.032.702-.009.702-.041.702-.012.703-.009.7.085.703-.017.701.038.699.059.699.059.688.153.699.055.694.111.744.153.748.144.724.234.714.258.707.268.681.356.684.261.666.301.666.306.686.257.682.275.72.138.73.032.757.017.745-.133.733-.185.728-.2.724-.213.709-.271.726-.217.694-.292.72-.214.606-.274.33-.594.146-.693.439-.548.564-.428.717-.035.637.304.523.469.588.311.671.027.695-.187.708-.125.716-.067.716-.055.718-.015.715-.047.715-.054.716-.031.718.018.715-.084.714-.05.713-.002.716.029.718-.043.718.021.715.074.709.117.713.073.711.095.706.136.674.202.635.304.649.26.664.229.602.359.652.261.65.217.661.204.684-.076.653-.191.531-.433.409-.559.216-.661.059-.522-.061-.479ZM62.845,39.387l-.449-.268-.559-.239-.536-.269-.562-.209-.547-.252-.687-.2-.684-.2-.681-.218-.701-.139-.709-.079-.701-.149-.71-.092-.737-.016-.737-.024-.732-.123-.738-.027-.739-.023-.74.064-.74-.06-.739.032-.736.1-.739.019-.737.056-.734.086-.743.022-.734.094-.733.097-.73.213-.568-.521-.684-.323-.743-.117-.739-.128-.748.078-.734.175-.678.333-.581.477-.501.548-.438.603-.307.677-.634.208-.649.191-.634.236-.641.219-.656.167-.662.133-.654.164-.737.094-.74-.112-.684-.297-.684-.286-.676-.302-.663-.317-.697-.255-.68-.293-.683-.288-.681-.294-.707-.227-.729-.175-.738-.119-.739-.114-.744-.087-.747-.092-.737-.089-.74-.018-.734-.084-.738-.034-.739.005-.736-.087-.738.057-.738-.019-.737.037-.739-.011-.734.085-.741-.006-.73.126-.738.039-.728.129-.741.023-.72.178-.682.064-.671.13-.67.131-.665.152-.672.124-.641.236-.655.193-.768.315.297-.665.336-.593.348-.59.454-.514.496-.47.484-.48.53-.426.552-.396.618-.429.636-.393.691-.286.69-.277.692-.271.66-.289.669-.256.683-.212.707-.119.689-.191.709-.09.688-.032.681-.098.683-.082.683-.088.686-.054.69.005.686-.028.684-.079.687-.048.712-.005.712.068.711-.033.711-.043.711.077.71.015.711-.039.711-.031.71.012.709.056.71.024.708.061.707.054.709.033.713-.016.703.121.705.089.715.002.732.141.745-.03.74.032.739.089.742-.024.741.018.74.029.739.06.677.033.675.062.678.019.675.063.68-.012.677.021.675.073.679-.038.742.077.744-.019.743.002.743-.03.743-.022.743-.006.741-.073.744.023.743-.061.744-.005h.744s.743.049.743.049l.744-.002.72.031.714.107.704.154.701.145.689.193.7.171.634.344.63.343.621.368.5.522.513.501.475.542.405.596.345.633.313.652.184.698.1.71h-.004Z"/><path class="cls-1" d="M64.128,22.248l-.226-.715-.389-.63-.52-.536-.643-.393-.68-.33-.713-.256-.733-.189-.709-.091-.689-.186-.704-.117-.715.005-.706-.115-.714.06-.711.003-.713-.046-.709.075-.71.043-.71.044-.712.027-.71.064-.712.036-.708.076-.711.024-.707.087-.709.036-.71-.038-.706.052-.704-.079-.705-.003-.704-.041-.705-.022-.704-.039-.702-.061-.706.003-.7-.092-.706-.004-.703-.052-.703-.047-.701-.079-.705-.012-.704-.024-.702-.07-.702-.079-.705-.021-.705-.013-.705.076-.722-.044-.721.019-.719.069-.723-.043-.719.054-.718.065-.719.042-.719.039-.717.074-.72.022-.719.034-.718.062-.721.012-.718.063-.718.054-.721-.003-.719.027-.718.053-.72.017-.719.037-.72-.012-.72-.013-.72-.009-.707.042-.706-.003-.702-.108-.704-.031-.704.01h-.704s-.703-.004-.703-.004l-.702-.031-.703-.014-.704-.007-.703.005-.706-.043-.749.027-.748.041h-.749s-.739.118-.739.118l-.718.204-.681.321-.549.517-.453.602-.269.639-.172.67-.068.692.072.693.24.651.268.639.504.473.553.394.638.269.668.184.683.116.682.12.687.108.696-.038.693.089.693-.028.692.026h.733s.732.024.732.024l.731.047.731.055.732.002.732-.022.732-.052.731.068.732.009.732-.03.734-.049.735.021.735.015.733-.048.732-.055.735.022.731-.077.736.027.73-.091.731-.069.734-.019.735.01.732-.054.73-.09.733-.041.734-.022.733-.032.733-.046.735.04.732-.059.734-.035.735.009.727.043.727.024.727-.046.727.033.727-.059.727.015.727.006.727-.021.728.055.727.007.727-.037.756-.037.755.057.757-.043.752.114.758-.073.752.097.757-.034.754.017.754.053.755.042.753.04.757-.059.753.066.755.009.753.07.757-.025.751.101.754.042h.755s.698.051.698.051l.697.033.696-.008.695-.038.696-.011.762.018.766.035.754-.13.736-.214.618-.332.529-.458.439-.538.361-.589.289-.636.117-.693-.068-.697ZM61.501,23.212l-.566.566-.777.179-.794-.02-.727.037-.727-.013-.728.03-.725-.098-.728.027-.726-.035-.727.008-.725-.056-.709-.067-.711-.005h-.711s-.711-.006-.711-.006l-.71-.03-.711.008-.71-.027-.711.017-.709-.054-.711.008-.708-.092-.712.045-.708-.097-.71-.033-.711.013-.711-.008-.711.018-.709-.081-.711-.01-.711.027-.71-.06-.711-.004-.711-.009-.711.045-.711-.007-.711-.007-.711-.005-.71.042-.711.004-.711-.059-.71.038-.711-.025-.709.081-.711.002-.71.046-.712-.004-.708.077-.697.047h-.7s-.697.057-.697.057l-.694.092h-.701s-.698.039-.698.039l-.694.099-.696.075-.703-.041-.698.034-.699.015-.695.085-.698-.056-.696.02-.697.073-.697-.024h-.697s-.697.013-.697.013l-.697-.064-.697-.006-.697-.017-.696.088-.721-.075-.717.007-.721.071-.719-.09-.721-.03-.717-.079-.719-.064-.721-.048-.714-.108-.557-.162-.426-.353-.038-.536.107-.524.452-.46.644-.183.672-.003.665.073.666.02.04-.047.744-.031.745.045.743-.022.743-.006.743.033.744-.031.743.028.742.05.738.095.713.053.714.03.715.002.714.016.714-.002.714.003.714-.008.712-.078.714-.005.713-.048.711-.078.718.023.708-.11.714-.024.71-.068.726-.003.721-.082.727.024.722-.094.727.005.723-.076.727.039.719-.111.715.01.713-.046.714-.029.714-.024.714.04.715-.034.713.061.713.029.713.045.734.053.737.013.731.096.729.11.735.048.733.07.735.049.737.012.736.023.732.101.735.058.737.014.737-.048.735-.031.735-.018.738.034.722-.095.725-.049.727-.027.723-.093.725-.075.725-.079.728-.041.73.024.728-.002.728-.044.73-.003.727.06.713.164.721.098.719.127.676.281.773.39.145.812Z"/><polygon class="cls-1" points="6.48 3.44 6.477 3.529 6.508 3.419 6.523 3.441 6.522 3.318 6.48 3.44"/><path class="cls-1" d="M6.532,3.53l-.007.411.007-.411Z"/><path class="cls-1" d="M62.133,3.664l-.251-.722-.398-.653-.581-.491-.632-.416-.711-.269-.741-.16-.734-.213-.762-.059-.7-.128-.708-.074-.702-.123-.712-.028-.704-.121-.714.01-.708-.08-.713.008-.708-.102-.713.052-.71-.059-.712.009-.711.003-.711.009-.712-.043-.712.043-.713-.04-.712.005-.712.002-.712.005-.711.049-.711-.032-.71-.046-.728.019-.728.006-.727.033-.725.073-.724.064-.729-.016-.727.023-.725.06-.72.112-.722.085-.725.057-.73-.011-.721.101-.726.043-.728.013-.724.073-.725.053-.725.056-.727.02-.728-.039-.728-.004-.728.053-.729.032-.729-.006-.727-.081-.729.019-.729.029-.726-.089-.727-.025-.729.033-.728.03-.728-.007-.727-.044-.728-.004-.728-.031-.754-.016-.754.013-.754.069-.754-.06-.754-.019-.754.076-.755-.069-.753.085-.754.009-.755-.056-.71.042-.708.03-.694.129-.656.272-.609.501-.443.654-.164.771-.037.786-.028.749-.07.751-.113.748.023.756-.051.697.067.694.061.694.102.69.099.694.08.687.225.754.303.723.556.551.554.337.626.19.645.125.658.02.658.048.709.138.706.15.712.097.711.092.72.006.707.124.714.058.716.002.711.105.718-.003.717-.026.711-.008h.711s.711-.03.711-.03l.711.026.711.015.711-.012.711.039.711-.014.711-.008.711.046.711.011.711-.02.711.009.711-.02.711.021.711.012.711-.003.711-.065.711-.027.712.073.711-.01.71-.055.71-.049.71-.046.711-.018.711-.029.711-.029.711-.031.712.026.71-.052.71-.058.712.018.71-.026.711-.004.711.028.71-.035h.711s.71-.034.71-.034h.711s.711.014.711.014l.71-.011.71-.063.711.046.71-.08.711.02.711.011.711-.009.723-.019.722.033.722.054.724-.07.723.066.723-.053.722-.015.72-.057.721-.044.722-.037.723-.047.748-.116.743-.153.724-.225.733-.193.657-.381.501-.568.293-.686.187-.727.093-.772.004-.777-.019-.776.05-.777-.046-.776.076-.679-.035-.682-.032-.68-.025-.678-.108-.67ZM6.515,3.436l.054-.094-.069.099.022.061-.021-.054.014-.011ZM6.505,3.508l.078.442-.078-.442ZM57.645,5.924l-.757.041-.755-.022-.756-.034-.757.031-.757-.008-.756-.036-.753-.075-.759.018-.686-.06-.68-.112-.685-.041-.685-.012-.684-.017-.682-.086-.684.024-.688-.01-.712-.003-.712-.007-.709.086-.712-.003-.709.062-.714-.045-.708.082-.711.02-.711.023-.709.051-.708.07-.709.044-.708.063-.71.031-.711.017-.706.106-.714-.033-.7.074-.703-.009-.699.098-.703-.015-.701.04-.703-.033-.7.09-.702.016-.702-.016-.702-.032-.702.006-.702.074-.701-.092-.702.028-.701-.047-.701-.009-.701-.023-.702-.012-.721-.035-.723.031-.72-.01-.717-.059-.718-.043-.717-.06-.72.03-.718-.006-.719.051-.719-.067-.716.064-.716.004-.715.047-.716-.019-.716-.035-.714.024-.715.028-.716.016-.631-.167-.468-.458-.145-.647.118-.661.482-.467.644-.191.719.07.718-.069.718.073.718.008.717-.038.718-.016.717-.041.718.061.717-.008.717-.041.717.049.717-.003.717.008.718-.04.717.018.717.025.717.029.719-.009.701.03.699.09.703-.009.701.052.703-.055.702.023.702-.021.702.028.701-.053.702-.018.703.032.702-.021.7-.057.703.033.702-.009.7-.075.7-.058.705.05.711-.039.711-.035.706-.114.714.02.709-.061.705-.118.711-.023.709-.046.709-.061.713.02.71-.033.71-.017.706-.114.713.055.71-.026.709-.092.712.065h.709s.706.047.706.047l.705.019.707-.015.704.022.697.082.701.074.709.041.734.063.736-.003.736-.003.735.03.736.042.736-.015.737-.038h.736s.625.232.625.232l.451.47.158.638-.169.629-.417.501-.648.091Z"/><polygon class="cls-1" points="6.513 3.44 6.551 3.516 6.503 3.442 6.522 3.44 6.568 3.341 6.513 3.44"/><path class="cls-1" d="M6.598,3.953l-.085-.439.085.439Z"/><polygon class="cls-1" points="23.977 34.629 23.61 35.041 23.105 35.26 22.52 35.361 22.185 35.393 22.165 35.357 21.525 35.312 20.714 35.224 20.478 35.2 20.434 35.269 20.435 35.2 20.292 35.224 19.616 35.058 19.158 34.586 18.963 33.953 19.168 33.314 19.614 32.84 19.957 32.734 19.998 32.775 19.971 32.716 19.997 32.751 20.016 32.689 20.054 32.691 20.236 32.661 20.82 32.547 21.493 32.487 22.205 32.557 22.812 32.606 23.075 32.675 23.555 32.875 24.003 33.364 24.201 34.002 23.977 34.629"/></g></svg>