<?xml version="1.0" encoding="UTF-8"?><svg id="Calque_2" xmlns="http://www.w3.org/2000/svg" viewBox="0 0 65.428 32.194"><defs><style>.cls-1{fill:#c40e50;}</style></defs><g id="Calque_1-2"><path class="cls-1" d="M65.338,22.73l-.064-.754-.147-.743-.271-.708-.331-.68-.367-.659-.423-.623-.365-.633.349-.629.291-.683.164-.73-.053-.746-.19-.745-.43-.632-.536-.551-.68-.366-.746-.311.497-.728.196-.835-.016-.78.045-.774-.019-.776.031-.777-.017-.776.038-.681.023-.681.03-.683-.099-.676-.153-.659-.222-.728-.414-.638-.538-.536-.671-.35-.698-.288-.72-.244-.753-.121-.753-.119-.698-.144-.71-.06-.703-.124-.711-.05-.711-.031-.712-.012-.707-.089-.711-.026-.71-.06-.713.033-.711-.026-.71-.072-.712.038-.711-.043-.712.009-.712-.031-.712.047-.713-.042-.712.045-.712.035-.711.027-.711-.02-.71.02-.728-.078-.726.092-.729-.05-.725.069-.726.047-.725.061-.728.011-.727.024-.721.108-.724.066-.728.019-.725.056-.726.045-.723.085-.722.091-.727.03-.727.026-.728-.008-.725.053-.726.055-.729.014-.729-.068-.729.042-.728-.012-.729.037-.727-.091-.728.009-.729.037-.728-.017-.727-.021-.726-.08-.728.003-.728.04h-.728s-.728-.024-.728-.024l-.754-.044-.754.065-.754-.036-.754-.002-.754.059-.754.014-.755-.06-.754.011-.754.061-.754.03-.711-.028-.713-.037-.69.182-.647.287-.629.477-.357.696-.212.744-.053.784-.075.745-.11.747.015.759-.101.751.059.696.057.693.01.7.118.688.11.692.145.678.201,1.009-.636.21-.567.388-.476.484-.472.505-.247.687-.173.702-.007.723.09.715.198.696.398.602.462.532-.253.339-.518.547-.47.589-.442.613-.372.659-.259.712-.338.676-.21.726-.117.745.013.814.448.675.675.436.706.087.69-.175.641-.294.669-.324-.067.697.038.658-.014.743-.097.742.039.746.102.741.254.703.416.617.574.465.676.293.632.19.643.191.669-.002.662.088.67-.05.661-.009.771.093.774-.002.776.075.685-.14.694-.005.692-.041.692-.038.691-.055.692-.045.691-.06.692-.049.688-.101.692-.041.69-.064.693-.021.691-.054h.73s.729-.033.729-.033l.729.002.729-.007.728.03.727.055.727.032.729-.045.726.089.729-.004.727-.045.722-.092.745-.016.743-.037.743-.022.743-.04.744-.029.744.034.744.046.745-.008.746-.018.745.055.745-.017.741.061.701-.076.701.053.7-.008.7-.027.699-.031.7.005.698-.055.699-.042.703.021.754-.028.753-.075.754.067.753.007.755-.054.753.032.746.132.753.052.755-.019.745.107.749.028.749.032.75.035.683-.012.682.057.684.058.681-.091.68-.056.672-.128.639-.244.609-.334.534-.441.399-.567.21-.658.165-.673v-.692s-.032-.692-.032-.692l.061-.693.052-.629-.019-.637.096.07.659.208.676.108.682.013.642-.229.545-.414.365-.582.24-.647.035-.519-.067-.471ZM8.506,3.638l.718.049.719.035.718-.029.718-.035.718-.018.717-.03.718.085.717-.067.717.013.717.03.717-.037.717.005.718-.024.717.056.718-.018.718-.002.714.11.717.037.705-.048.701.038.702-.009.701.046.702-.005.702.03.702.005.702.029.701-.06.701-.044.703.027.701-.029.702-.011.7-.073.702-.013.703.023.7-.054.701-.031.713.006.709-.071h.713s.709-.065.709-.065l.708-.076.707-.087h.712s.709-.058.709-.058l.711-.014.706-.098.71-.031.713.024.708-.077.712.014.71-.028.711.02.711-.047.708.053.707-.02h.706s.705.016.705.016l.701.069.701.03.697.133.714-.027.73.118.737-.01.736.008.736-.008.736.042.735.033.736-.044.735.009.617.212.431.47.14.624-.111.635-.425.504-.654.129-.754-.034-.755-.05-.756.024-.757.034-.757-.004-.755-.089-.756.01-.753-.06-.69-.013-.679-.133-.686-.024-.687.011-.683-.034-.683-.03-.681-.081-.689.01-.711.053-.711.017-.711-.002-.712-.02-.708.093-.712-.004-.71.033-.706.096-.709.053-.714-.021-.709.05-.706.099-.708.067-.711.019-.714-.023-.707.088-.711.027-.703.006-.698.106-.703-.003-.703-.014-.702.024-.702-.01-.7.098-.703-.056-.701.054-.702.015-.702-.06-.702.03-.702.009-.702.043-.701-.076-.701-.026-.703.019-.703.002-.718-.115-.723.029-.719-.045-.72-.005-.718-.029-.718-.048-.719.023-.718-.069-.72.078-.718-.028-.717-.005-.717-.012-.715.023-.714.095-.716-.051-.715.019-.715.038-.716-.043-.645-.108-.426-.496-.117-.632.126-.629.419-.5.644-.186ZM4.417,16.134l.017-.56.125-.515.445-.445.635-.191.671-.037.671.011.66.129.041-.062h.855s.855.017.855.017l.678-.043h.68s.681-.026.681-.026l.68.057.681-.013.896.055.892.132.468.028.692-.037.688.042.69-.012.689.038.689-.019.69.011.69-.018.69.002.706-.048.708-.028.707.047.707-.006.707.015.708-.045.707.016.707.053.708-.023h.708s.708.038.708.038l.707-.037.708.035.707-.033.707-.045.706-.059.708.022.706-.039h.708s.705-.084.705-.084l.707-.019.709.033.705-.071.708.016.706-.031.707.012.705-.061.704.03.722.021.724.03.723.034.72.077.723.029.718.122.726-.047.721.094.724-.029.723-.013.723-.035.725.003.726-.021.717-.111.722-.072.727-.026.725-.062.726-.046.724-.08.578-.069.582.004.061.015.764.035.763-.003.765.018.031-.004.741.161.749.088.733.181.737.175.745.454.087.78.048.03-.546.583-.781.191-.796-.047-.732.009-.734.034-.733-.014-.721-.04-.722-.065-.725.042-.722-.059-.722-.025-.712.037-.711-.01-.708-.086-.71-.017-.712.032h-.711s-.71-.047-.71-.047l-.708-.087-.712.026-.71-.031-.71-.046-.713.056-.71-.051-.709-.058-.711-.017-.71-.048-.713.064-.709-.086-.712.029-.711-.005-.71-.075-.711.02-.711.005-.711.044-.71-.068-.711-.011-.711.04-.711.03-.711-.08-.71.068-.711-.002-.71.039-.711.015-.711-.006-.709.062-.713-.035-.707.106h-.7s-.699.029-.699.029l-.699.024-.696.062-.691.136-.702-.01-.697.06-.696.078-.701-.005-.696.084-.7-.011-.697-.016-.696.032-.696.044-.697.033-.697-.082-.697.059-.697.02-.697-.082-.697.007-.697-.011-.697.017-.662.02-.664.021-.669.024-.749-.025-.745-.113-.751.011-.74-.135-.749-.039-.743-.109-.255-.095-.781-.403ZM62.831,23.067l-.45-.281-.513-.329-.195-.06-.745-.296-.748-.286-.766-.251-.751-.311-.674-.096-.661-.145-.663-.137-.678-.049-.674-.072-.735-.032-.732-.097-.738-.008-.738-.009-.736-.105-.74-.015-.739.081h-.739s-.738.057-.738.057l-.74.009-.737.069-.739.044-.737.079-.738.066-.722.166-.738.162-.557-.469-.642-.309-.68-.209-.709-.028-.705.029-.704.108-.651.291-.605.373-.562.442-.419.581-.374.612-.116.376-.627.229-.631.247-.658.164-.643.21-.658.159-.64.224-.662.138-.742-.011-.735-.082-.687-.279-.682-.289-.663-.334-.84-.319-.807-.396-.624-.222-.626-.217-.628-.203-.621-.222-.728-.165-.718-.222-.751-.034-.734-.163-.752-.043-.739-.071-.737-.055-.733-.095-.736-.072-.74.023-.738-.009-.738-.044-.739.006-.739.008-.737.063-.734.084-.737.038-.737.05-.739.034-.731.111-.727.131-.73.108-.666.03-.641.143-.671.114-.657.182-.68.084-.647.216-.622.28-.06.018-.786.307.348-.657.503-.879.384-.601.46-.545.515-.493.549-.425.748.025.756.09.763.035.761-.033.76.016.73.092.732.017.733-.037.732-.009.731.035.731.071.732-.044.732.011.732.026.732-.077.734.024.735.026.734-.02.735.007.73-.109.736.038.731-.078.732-.045.736.025.731-.07.732-.054.73-.091.736.024.733-.029.731-.075.732-.061.737.056.731-.086.734-.008.733-.042.734-.008.735.022.727-.037.727.063.727-.074.727.039.727.019.727.027.727-.009.727-.082.728.062.727-.012.727-.035.756.047.756-.043.755.047.754.051h.755s.756-.012.756-.012l.756-.005.752.106.757-.04.756-.007.753.097.754.014.754.038.755.016.755.018.756.012.756.002.754.041.75.111.701-.038.695.077.696-.053.695-.021.696.046.77-.03.773.06.764-.206.301.399.42.618.359.655.307.681.216.714.128.734-.033.04Z"/></g></svg>